<?xml version="1.0" encoding="utf-8"?>
<!-- Generator: Adobe Illustrator 16.0.3, SVG Export Plug-In . SVG Version: 6.00 Build 0)  -->
<!DOCTYPE svg PUBLIC "-//W3C//DTD SVG 1.1//EN" "http://www.w3.org/Graphics/SVG/1.1/DTD/svg11.dtd">
<svg version="1.1" id="Capa_1" xmlns="http://www.w3.org/2000/svg" xmlns:xlink="http://www.w3.org/1999/xlink" x="0px" y="0px"
	 width="595.28px" height="841.89px" viewBox="0 0 595.28 841.89" enable-background="new 0 0 595.28 841.89" xml:space="preserve">
<g>
	<path fill-rule="evenodd" clip-rule="evenodd" fill="#FFFFFF" d="M109.2,671.091c-18.199,0-36.398,0-54.72,0
		c0-17.44,0-34.881,0-52.32c1.264,0.066,0.97,1.234,1.365,1.918c1.265,8.132,3.6,15.894,8.13,22.854
		c9.975,15.326,23.898,24.271,42.25,25.996c1.042,0.098,2.07,0.209,2.936,0.884C109.352,670.635,109.365,670.858,109.2,671.091z"/>
	<path fill-rule="evenodd" clip-rule="evenodd" fill="#FFFFFF" d="M541.681,615.411c0,18.56,0,37.12,0,55.681
		c-18.24,0-36.48,0-54.72,0c-0.163-0.238-0.146-0.462,0.051-0.673c0.936-0.725,2.048-0.813,3.17-0.896
		c12.769-0.949,23.733-6.071,33.016-14.723c9.963-9.286,15.537-20.881,17.277-34.364c0.212-1.648-0.271-3.371,0.543-4.95
		C541.218,615.273,541.438,615.249,541.681,615.411z"/>
	<path fill-rule="evenodd" clip-rule="evenodd" fill="#FFFFFF" d="M54.48,224.21c0-17.28,0-34.561,0-51.84c17.28,0,34.56,0,51.84,0
		c0.165,0.233,0.145,0.45-0.058,0.65c-4.365,1.22-8.93,1.558-13.213,3.2c-19.216,7.366-31.486,20.824-36.19,40.981
		c-0.362,1.553-0.643,3.125-1.01,4.678C55.394,222.656,55.902,224.004,54.48,224.21z"/>
	<path fill-rule="evenodd" clip-rule="evenodd" fill="#FFFFFF" d="M489.841,172.37c17.28,0,34.56,0,51.84,0c0,18.4,0,36.8,0,55.2
		c-0.239,0.163-0.458,0.139-0.658-0.07c-0.872-2.043-0.455-4.248-0.766-6.371c-3.596-24.605-22.019-43.32-46.63-47.256
		c-1.25-0.2-2.553-0.232-3.717-0.842C489.7,172.83,489.678,172.61,489.841,172.37z"/>
	<path fill-rule="evenodd" clip-rule="evenodd" fill="#CABED5" d="M54.48,615.411c0-129.28,0-258.56,0-387.84
		c0.347-0.124,0.613-0.027,0.8,0.29c0.72,1.604,0.448,3.308,0.448,4.97c0.014,107.144,0.012,214.287,0.012,321.431
		c0,18.95,0.004,37.899-0.008,56.85c-0.001,1.348,0.176,2.729-0.447,4.014C55.096,615.44,54.827,615.535,54.48,615.411z"/>
	<path fill-rule="evenodd" clip-rule="evenodd" fill="#F6F4F8" d="M541.281,227.563c0.134-0.005,0.267-0.003,0.399,0.008
		c0,129.28,0,258.56,0,387.84l-0.198,0.011l-0.198-0.003c-0.784-0.626-0.777-1.532-0.834-2.406c-0.058-0.878-0.031-1.76-0.031-2.64
		c-0.001-125.92-0.003-251.839,0.022-377.759C540.441,230.912,539.925,229.063,541.281,227.563z"/>
	<path fill-rule="evenodd" clip-rule="evenodd" fill="#C9BDD5" d="M109.2,172.37c125.92,0,251.84,0,377.761,0
		c0.124,0.347,0.027,0.613-0.29,0.8c-1.604,0.72-3.308,0.448-4.97,0.448c-110.74,0.014-221.48,0.012-332.221,0.012
		c-12.073,0-24.147,0.006-36.22-0.007c-1.269-0.001-2.568,0.148-3.773-0.448C109.171,172.986,109.076,172.717,109.2,172.37z"/>
	<path fill-rule="evenodd" clip-rule="evenodd" fill="#F6F4F8" d="M486.959,670.602c0.001,0.162,0.001,0.325,0.002,0.489
		c-125.921,0-251.841,0-377.761,0c0.001-0.17,0.003-0.339,0.004-0.508c0.69-0.685,1.586-0.688,2.463-0.73
		c0.879-0.044,1.759-0.023,2.639-0.023c122.52-0.001,245.039-0.003,367.559,0.02C483.578,669.849,485.406,669.389,486.959,670.602z"
		/>
	<path fill-rule="evenodd" clip-rule="evenodd" fill="#E2DBE8" d="M54.946,227.563l-0.233-0.003l-0.233,0.01c0-1.12,0-2.24,0-3.36
		c0.873-0.589,0.098-1.809,0.924-2.415C56.668,223.831,56.201,225.728,54.946,227.563z"/>
	<path fill-rule="evenodd" clip-rule="evenodd" fill="#DDD7E5" d="M54.48,615.411c0.156,0.007,0.313,0.009,0.47,0.005
		c1.15,1.688,1.703,3.423,0.422,5.304c-0.666-0.48-0.148-1.503-0.892-1.948C54.48,617.651,54.48,616.531,54.48,615.411z"/>
	<path fill-rule="evenodd" clip-rule="evenodd" fill="#E0D9E7" d="M109.2,172.37c-0.005,0.14-0.014,0.28-0.025,0.419
		c-0.96,0.859-1.919,0.86-2.878-0.001c0.013-0.139,0.021-0.279,0.024-0.418C107.28,172.37,108.24,172.37,109.2,172.37z"/>
	<path fill-rule="evenodd" clip-rule="evenodd" fill="#DED6E5" d="M486.986,172.778c-0.009-0.136-0.018-0.272-0.025-0.408
		c0.96,0,1.92,0,2.88,0c0.007,0.137,0.017,0.274,0.028,0.411C488.908,173.652,487.947,173.654,486.986,172.778z"/>
	<path fill-rule="evenodd" clip-rule="evenodd" fill="#957DAB" d="M486.986,172.778c0.961,0.001,1.922,0.002,2.883,0.002
		c22.286,1.56,41.935,17.232,48.9,39.008c1.642,5.129,2.503,10.384,2.512,15.774c-0.026,0.958-0.077,1.916-0.077,2.874
		c-0.004,127.37-0.004,254.739,0,382.109c0,0.958,0.052,1.915,0.08,2.873c-0.03,8.699-2.063,16.937-6.157,24.578
		c-8.854,16.524-22.526,26.494-41.05,29.759c-2.366,0.416-4.778,0.299-7.118,0.847c-0.959-0.023-1.918-0.066-2.877-0.066
		c-124.08-0.003-248.16-0.003-372.24-0.001c-0.879,0-1.758,0.032-2.638,0.049c-4.583-0.541-9.199-0.889-13.633-2.32
		c-20.817-6.72-33.955-20.624-39.217-41.899c-0.459-1.857-0.792-3.739-0.982-5.645c0.31-1.804-0.337-3.531-0.422-5.304
		c0.015-1.039,0.043-2.078,0.043-3.117c0.002-127.206,0.002-254.412,0-381.618c0-1.039-0.03-2.078-0.047-3.117
		c0.139-1.924,0.716-3.813,0.458-5.768c2.782-18.979,12.59-33.18,29.256-42.566c6.681-3.763,13.972-5.812,21.636-6.441
		c0.959,0,1.919,0.001,2.878,0.001c0.958,0.02,1.917,0.058,2.876,0.058c124.02,0.002,248.04,0.003,372.061,0
		C485.069,172.847,486.028,172.802,486.986,172.778z"/>
	<path fill-rule="evenodd" clip-rule="evenodd" fill="#FFFFFF" d="M533.582,421.461c0,63.918-0.024,127.836,0.03,191.753
		c0.007,8.244-1.519,16.086-5.423,23.328c-7.607,14.107-19.327,22.678-35.168,25.513c-2.922,0.522-5.875,0.741-8.823,0.742
		c-123.916,0.023-247.832,0.024-371.747,0.014c-11.025-0.001-21.166-2.917-30.047-9.611c-10.279-7.746-16.659-17.929-18.884-30.659
		c-0.565-3.236-0.829-6.489-0.829-9.775c0.008-127.516,0.01-255.032,0.003-382.547c0-11.478,3.066-21.954,10.22-31.039
		c7.955-10.102,18.253-16.293,31.035-18.281c2.47-0.384,4.933-0.472,7.407-0.472c124.556-0.011,249.112,0.052,373.667-0.067
		c22.087-0.021,42.127,15.268,47.313,37.223c0.979,4.148,1.262,8.352,1.26,12.605c-0.023,44.479-0.015,88.957-0.015,133.436
		C533.582,382.903,533.582,402.182,533.582,421.461z"/>
	<path fill-rule="evenodd" clip-rule="evenodd" fill="#957DAB" d="M515.903,491.728c0,6.88-0.025,13.76,0.011,20.639
		c0.018,3.437,0.343,6.881,0.19,10.307c-0.473,10.633-0.235,21.269-0.281,31.902c-0.021,4.98-0.766,9.864-1.867,14.704
		c-0.303,1.329-0.429,2.593,0.002,3.975c3.841,12.313,1.168,23.535-6.041,33.848c-5.976,8.547-13.975,14.882-22.915,20.08
		c-12.495,7.265-26.002,11.766-40.106,14.667c-14.253,2.933-28.663,3.91-43.156,3.215c-20.45-0.981-40.231-5.053-58.822-13.942
		c-9.297-4.445-17.86-10.01-24.997-17.538c-5.633-5.941-10.046-12.641-11.979-20.729c-1.535-6.422-1.466-12.834,0.469-19.173
		c0.432-1.416,0.504-2.717,0.168-4.199c-1.504-6.646-2.04-13.389-2.021-20.217c0.062-22.397-0.023-44.796-0.056-67.194
		c-0.009-6.159,0.016-12.322,0.602-18.454c0.695-7.283,2.628-14.275,5.451-21.024c2.199-5.256,5.153-10.104,8.035-14.995
		c0.693-1.177,1.555-1.798,3.031-1.948c7.097-0.723,14.061,0.067,20.893,1.861c16.842,4.424,29.967,14.042,39.149,28.843
		c1.425,2.296,2.815,3.268,5.584,3.223c9.832-0.157,19.665,0.357,29.501,0.202c5.994-0.095,11.988-0.242,17.982-0.24
		c1.555,0.001,2.423-0.462,3.211-1.841c5.01-8.759,11.796-15.9,20.214-21.441c9.249-6.087,19.384-9.657,30.466-10.554
		c3.603-0.291,7.169-0.41,10.761,0.013c0.979,0.115,1.586,0.5,2.099,1.322c5.177,8.312,9.72,16.896,12.081,26.501
		c1.304,5.304,2.035,10.679,2.132,16.114c0.13,7.357,0.032,14.718,0.032,22.076C515.784,491.728,515.844,491.728,515.903,491.728z"
		/>
	<path fill-rule="evenodd" clip-rule="evenodd" fill="#957DAB" d="M292.05,288.181c0,12.479,0.002,24.958-0.001,37.437
		c-0.002,6.018-0.776,11.95-2.089,17.811c-0.235,1.047-0.282,1.981,0.031,3.038c4.052,13.706,0.807,25.87-7.93,36.824
		c-6.442,8.077-14.583,14.077-23.585,18.963c-12.256,6.653-25.382,10.804-39.023,13.507c-14.525,2.878-29.201,3.586-43.917,2.748
		c-20.774-1.184-40.781-5.681-59.444-15.241c-6.864-3.516-13.256-7.757-18.944-12.975c-5.898-5.41-10.738-11.62-13.654-19.172
		c-3.07-7.953-3.455-16.014-0.919-24.181c0.308-0.991,0.561-1.919,0.283-3.019c-1.795-7.102-2.25-14.336-2.09-21.64
		c0.188-8.635-0.349-17.278-0.214-25.9c0.276-17.676-0.051-35.353,0.34-53.026c0.282-12.738,3.727-24.574,10.035-35.605
		c1.27-2.221,2.625-4.393,3.883-6.62c0.74-1.308,1.735-1.844,3.281-1.933c14.428-0.828,27.761,2.504,39.908,10.372
		c8.392,5.437,15.236,12.417,20.251,21.081c1.142,1.972,2.368,2.688,4.684,2.67c15.838-0.12,31.678-0.089,47.517-0.026
		c1.727,0.007,2.661-0.524,3.57-2.038c10.404-17.321,25.685-27.663,45.484-31.37c5.215-0.976,10.507-0.823,15.788-0.641
		c0.982,0.034,1.621,0.437,2.146,1.253c6.96,10.797,12.307,22.226,13.738,35.175c0.73,6.601,0.888,13.233,0.897,19.868
		c0.016,10.88,0.004,21.76,0.004,32.64C292.069,288.181,292.06,288.181,292.05,288.181z"/>
	<path fill-rule="evenodd" clip-rule="evenodd" fill="#957DAB" d="M187.81,645.286c-19.715,0.094-37.34-2.479-54.459-8.225
		c-10.821-3.632-21.025-8.515-30.229-15.346c-7.544-5.6-13.958-12.21-18.153-20.729c-4.347-8.827-5.316-17.985-2.414-27.463
		c0.33-1.078,0.555-2.116,0.258-3.271c-1.909-7.42-2.177-14.987-2.045-22.602c0.097-5.597,0.042-11.196-0.002-16.795
		c-0.016-1.994-0.29-3.988-0.285-5.982c0.023-8.973,0.476-17.892,3.649-26.435c0.724-1.949,1.429-3.908,2.415-5.739
		c0.552-1.025,0.51-1.813-0.174-2.827c-2.813-4.166-4.691-8.766-5.245-13.76c-0.633-5.712-1.136-11.456-0.405-17.213
		c0.222-1.743,0.252-3.498,0.462-5.248c1.324-11.071,10.411-24.89,26.129-27.511c9.184-1.532,18.559-1.927,27.47,1.449
		c12.092,4.582,18.966,13.618,21.022,26.353c0.229,1.42,0.486,2.84,0.435,4.286c-0.04,1.137,0.516,1.562,1.604,1.551
		c1.919-0.018,3.839,0.032,5.758,0.031c16.796-0.009,33.591-0.021,50.387-0.037c2.145-0.002,2.192-0.012,2.458-2.152
		c0.334-2.692,0.546-5.396,1.256-8.034c3.103-11.521,13.69-22.545,27.978-23.877c6.162-0.575,12.305-0.672,18.416,0.161
		c7.114,0.971,13.246,4.121,18.232,9.309c4.77,4.961,7.918,10.828,9.045,17.653c0.744,4.502,0.882,9.059,0.783,13.624
		c-0.098,4.477-0.204,8.941-1.318,13.319c-0.896,3.522-2.303,6.83-4.363,9.803c-0.868,1.251-0.779,2.174-0.173,3.467
		c3.042,6.491,4.837,13.291,5.43,20.484c0.555,6.721,0.23,13.423,0.28,20.133c0.039,5.278-0.048,10.559,0.039,15.835
		c0.116,6.986-0.57,13.878-2.155,20.677c-0.227,0.973-0.187,1.847,0.097,2.809c4.039,13.702,0.807,25.869-7.918,36.824
		c-6.696,8.408-15.246,14.52-24.64,19.522c-11.945,6.362-24.708,10.382-37.954,12.94
		C208.468,644.399,197.352,645.457,187.81,645.286z"/>
	<path fill-rule="evenodd" clip-rule="evenodd" fill="#957DAB" d="M410.067,419.069c-18.331-0.157-36.299-2.611-53.69-8.609
		c-10.331-3.563-20.1-8.259-28.958-14.731c-6.45-4.713-12.048-10.242-16.37-17.008c-4.061-6.356-6.245-13.316-6.297-20.83
		c-0.025-3.736,0.479-7.492,1.726-11.083c0.258-0.744,0.557-1.467,0.329-2.324c-2.093-7.877-2.374-15.916-2.275-24.016
		c0.12-9.836-0.081-19.676,0.034-29.512c0.101-8.495,1.965-16.64,5.683-24.305c0.645-1.329,0.517-2.278-0.282-3.495
		c-3.551-5.415-5.16-11.427-5.444-17.882c-0.203-4.635-0.246-9.251,0.039-13.884c0.679-11.049,5.33-19.946,14.279-26.493
		c4.415-3.23,9.472-5.006,14.88-5.56c5.728-0.586,11.48-0.724,17.228-0.034c15.376,1.845,25.104,13.123,28.005,24.507
		c0.633,2.484,0.976,5.01,1.047,7.58c0.054,1.92,0.108,1.949,2.091,1.951c15.759,0.014,31.517,0.018,47.275,0.021
		c2.799,0.001,5.599-0.009,8.398-0.017c2.546-0.008,2.503,0.25,2.608-2.417c0.145-3.618,0.721-7.184,2.126-10.519
		c5.462-12.965,15.076-20.199,29.279-21.264c4.813-0.361,9.585-0.283,14.356,0.154c6.272,0.573,11.999,2.728,16.899,6.732
		c6.277,5.128,10.543,11.618,11.984,19.648c0.973,5.417,1.479,10.92,0.918,16.461c-0.226,2.224-0.139,4.481-0.39,6.701
		c-0.602,5.33-2.436,10.243-5.407,14.706c-0.599,0.9-0.736,1.633-0.235,2.636c4.491,8.999,6.038,18.625,6,28.581
		c-0.044,11.198-0.073,22.396-0.125,33.594c-0.024,5.22-0.879,10.339-2.049,15.404c-0.248,1.071-0.207,1.998,0.107,3.021
		c3.685,11.996,1.413,23.05-5.444,33.308c-5.861,8.766-13.894,15.17-22.849,20.489c-12.075,7.173-25.163,11.725-38.844,14.654
		c-8.759,1.876-17.612,3.033-26.568,3.49C416.777,418.9,413.428,419.046,410.067,419.069z"/>
	<path fill-rule="evenodd" clip-rule="evenodd" fill="#FFFFFF" d="M307.777,551.644c2.223-1.133,4.612-1.15,6.938-1.474
		c6.642-0.924,13.273-1.897,19.799-3.466c2.094-0.504,4.165-1.121,6.149-1.982c0.884-0.385,1.732-0.84,2.396-1.559
		c0.993-1.073,0.89-1.934-0.356-2.75c-1.237-0.811-2.68-1.087-4.096-1.244c-5.571-0.62-11.152-0.709-16.75-0.256
		c-4.141,0.336-8.295,0.504-12.444,0.697c-1.791,0.084-1.793,0.028-1.873-1.61c-0.146-3.009-0.143-2.999,2.829-3.801
		c10.291-2.776,20.127-6.751,29.792-11.203c8.586-3.956,16.883-8.394,24.563-13.941c14.356-10.368,24.66-23.769,30.449-40.56
		c0.521-1.51,0.992-3.04,1.389-4.586c0.243-0.949,0.739-1.257,1.69-1.253c7.918,0.03,15.836,0.059,23.753-0.009
		c1.41-0.012,1.747,0.725,2.042,1.8c1.397,5.104,3.372,9.979,5.741,14.71c6.342,12.663,15.69,22.656,27.164,30.786
		c9.118,6.461,19.138,11.235,29.313,15.73c8.052,3.557,16.304,6.533,24.824,8.759c1.777,0.465,1.768,0.505,1.79,2.471
		c0.004,0.399,0.016,0.801-0.005,1.199c-0.079,1.519-0.091,1.544-1.715,1.519c-1.198-0.019-2.401-0.049-3.595-0.155
		c-6.531-0.582-13.073-0.922-19.631-0.79c-2.794,0.057-5.591,0.274-8.313,0.956c-1.216,0.304-2.661,0.613-2.771,2.217
		c-0.101,1.469,1.205,1.963,2.259,2.494c3.534,1.782,7.389,2.562,11.218,3.332c6.495,1.308,13.048,2.287,19.639,2.998
		c0.923,0.1,1.831,0.348,2.702,0.518c0.047,0.611-0.272,0.663-0.596,0.639c-5.988-0.441-11.984-0.367-17.979-0.229
		c-2.004,0.047-3.979,0.371-5.875,1.036c-0.847,0.297-1.611,0.756-1.692,1.808c-0.078,1.005,0.48,1.646,1.253,2.158
		c1.417,0.939,3.016,1.471,4.625,1.937c4.838,1.398,9.783,2.303,14.748,3.107c0.866,0.14,1.728,0.317,2.597,0.436
		c2.526,0.343,2.805,0.417,2.062,2.907c-1.325,4.447-0.777,8.622,0.249,13.078c1.952,8.466-0.064,16.485-4.327,23.951
		c-4.413,7.729-10.718,13.675-17.945,18.71c-11.226,7.82-23.711,12.814-36.862,16.266c-8.273,2.172-16.682,3.577-25.201,4.436
		c-8.373,0.844-16.757,1.14-25.143,0.742c-16.11-0.764-31.892-3.406-47.118-8.928c-10.591-3.841-20.559-8.84-29.334-15.981
		c-7.041-5.729-12.859-12.455-16.099-21.098c-2.664-7.107-3.02-14.354-0.794-21.623c0.64-2.087,0.774-4.014,0.153-6.082
		c-0.411-1.371-0.646-2.8-0.887-4.215c-0.288-1.699-0.118-1.858,1.604-2.115c5.763-0.862,11.506-1.835,17.136-3.373
		c1.772-0.484,3.533-1.019,5.139-1.949c0.867-0.502,1.542-1.116,1.486-2.257c-0.058-1.188-0.893-1.643-1.812-1.976
		c-1.896-0.685-3.883-0.933-5.882-0.978c-5.915-0.131-11.831-0.23-17.738,0.251C308.225,551.867,307.998,551.716,307.777,551.644z"
		/>
	<path fill-rule="evenodd" clip-rule="evenodd" fill="#D291B9" d="M512.905,531.845c-5.843-1.321-11.075-3.036-16.194-5.003
		c-8.423-3.235-16.691-6.864-24.675-11.085c-7.204-3.809-14.027-8.182-20.288-13.466c-6.415-5.414-11.713-11.729-16.204-18.754
		c-3.899-6.098-6.565-12.759-8.598-19.685c-0.087-0.295-0.201-0.609,0.034-0.95c0.641-0.287,1.37-0.138,2.079-0.139
		c10.159-0.008,20.319,0.012,30.479-0.002c6.386-0.009,12.471,1.419,18.407,3.664c8.654,3.272,15.771,8.739,21.758,15.643
		c6.401,7.384,10.332,16.038,12.235,25.628c1.001,5.047,0.985,10.144,0.969,15.248C512.897,525.81,512.905,528.676,512.905,531.845z
		"/>
	<path fill-rule="evenodd" clip-rule="evenodd" fill="#D291B9" d="M393.734,463.086c-1.047,3.646-2.19,7.117-3.641,10.478
		c-4.664,10.803-11.531,20.037-20.3,27.819c-5.253,4.662-11.065,8.581-17.196,12.046c-8.009,4.524-16.359,8.327-24.84,11.825
		c-6.18,2.549-12.501,4.775-19.042,6.284c-0.306,0.07-0.599,0.238-0.958,0.05c-0.47-0.409-0.296-1.005-0.299-1.536
		c-0.016-4.156-0.157-8.319,0.023-12.469c0.366-8.426,1.955-16.625,5.812-24.193c5.154-10.115,12.588-18.121,22.553-23.745
		c5.554-3.135,11.464-5.175,17.696-6.262c2.174-0.379,4.393-0.657,6.646-0.644c10.312,0.063,20.624,0.017,30.937,0.025
		C391.91,462.765,392.723,462.597,393.734,463.086z"/>
	<path fill-rule="evenodd" clip-rule="evenodd" fill="#D291B9" d="M379.788,459.272c-6.827,0.473-13.354,0.718-19.896,0.635
		c-1.438-0.019-2.411-0.783-3.351-1.612c-4.407-3.893-9.276-7.018-14.8-9.072c-2.848-1.061-5.772-1.764-8.839-1.846
		c-1.185-0.032-1.913,0.306-2.429,1.429c-2.177,4.738-3.502,9.698-4.369,14.834c-0.506,2.999-0.141,6.052-0.864,9.017
		c-0.16,0.656-0.367,1.138-0.898,1.589c-6.965,5.903-11.758,13.361-15.392,21.639c-0.41,0.937-0.762,1.898-1.518,2.859
		c0-0.642,0-1.283,0-1.925c0.004-7.113-0.109-14.229,0.044-21.341c0.168-7.793,0.498-15.584,2.812-23.137
		c1.662-5.429,3.572-10.735,6.527-15.621c1.361-2.251,2.656-4.543,3.924-6.849c0.488-0.888,1.154-1.157,2.129-1.211
		c11.235-0.614,21.899,1.505,31.903,6.687c6.641,3.439,12.554,7.887,17.58,13.434c2.35,2.595,4.513,5.364,6.375,8.345
		C379.101,457.721,379.357,458.389,379.788,459.272z"/>
	<path fill-rule="evenodd" clip-rule="evenodd" fill="#D291B9" d="M512.844,498.258c-1.815-3.626-3.385-7.191-5.419-10.541
		c-2.538-4.181-5.312-8.236-9.104-11.308c-2.893-2.342-3.53-5.281-3.653-8.573c-0.247-6.626-2.107-12.846-4.573-18.93
		c-0.451-1.112-1.174-1.518-2.387-1.546c-1.784-0.042-3.52,0.251-5.195,0.69c-6.017,1.577-11.474,4.311-16.278,8.298
		c-0.489,0.406-1.17,0.65-1.521,1.141c-1.661,2.318-3.979,2.543-6.563,2.419c-2.95-0.142-5.914,0.012-8.87-0.053
		c-2.833-0.063-5.625-0.704-8.783-0.34c1.056-2.467,2.408-4.244,3.72-5.999c5.315-7.111,11.861-12.802,19.63-17.18
		c6.268-3.531,12.942-5.776,19.945-7.063c4.534-0.833,9.158-0.819,13.771-0.616c1.097,0.049,1.779,0.51,2.312,1.403
		c3.515,5.903,6.93,11.881,9.077,18.428c1.907,5.816,3.167,11.761,3.563,17.96c0.659,10.303,0.146,20.595,0.382,30.887
		C512.902,497.643,512.862,497.951,512.844,498.258z"/>
	<path fill-rule="evenodd" clip-rule="evenodd" fill="#FFFFFF" d="M328.528,470.744c0.063-4.893,0.763-9.121,1.924-13.271
		c0.515-1.838,1.159-3.646,1.845-5.429c0.736-1.913,0.854-1.906,2.815-1.572c4.79,0.814,9.179,2.627,13.217,5.3
		c1.907,1.263,3.922,2.396,5.752,4.431C344.747,461.741,336.428,465.072,328.528,470.744z"/>
	<path fill-rule="evenodd" clip-rule="evenodd" fill="#FFFFFF" d="M491.508,470.375c-7.496-5.27-15.787-8.723-25.062-10.149
		c0.774-1.28,1.855-1.842,2.791-2.528c4.821-3.54,10.053-6.188,16.012-7.221c2.002-0.348,2.104-0.331,2.859,1.504
		c2.209,5.364,3.447,10.947,3.708,16.744C491.837,469.189,491.968,469.672,491.508,470.375z"/>
	<path fill-rule="evenodd" clip-rule="evenodd" fill="#D291B9" d="M338.611,542.112c-2.05,1.373-4.343,1.746-6.565,2.189
		c-5.365,1.07-10.758,2.021-16.165,2.848c-2.424,0.37-4.89,0.506-7.314,0.926c-0.692,0.12-1.062-0.18-1.094-0.886
		c-0.004-0.08,0-0.16-0.009-0.239c-0.391-3.753,0.208-4.321,4.007-4.513c5.011-0.253,10.058-0.159,15.025-0.626
		C330.604,541.425,334.57,542.555,338.611,542.112z"/>
	<path fill-rule="evenodd" clip-rule="evenodd" fill="#D291B9" d="M481.644,542.501c1.108-0.734,1.834-0.494,2.516-0.527
		c1.667-0.08,3.339,0.087,4.99-0.393c0.664-0.192,1.469-0.198,2.139-0.021c2.365,0.625,4.769,0.45,7.144,0.372
		c3.84-0.128,7.617,0.726,11.451,0.566c0.536-0.022,1.078,0.306,1.626,0.34c1.178,0.073,1.449,0.758,1.375,1.774
		c-0.076,1.03,0.361,2.215-0.188,3.06c-0.745,1.144-1.925,0.089-2.85-0.001c-3.866-0.375-7.724-0.905-11.558-1.542
		c-3.912-0.649-7.8-1.456-11.684-2.264C485.07,543.546,483.573,543.04,481.644,542.501z"/>
	<path fill-rule="evenodd" clip-rule="evenodd" fill="#D191B7" d="M491.54,555.171c1.756-0.675,3.336-0.735,4.939-0.72
		c3.039,0.029,6.082,0.104,9.116-0.023c2.101-0.088,4.104,0.612,6.187,0.519c0.66-0.03,1.044,0.317,1.073,1.002
		c0.01,0.239,0.012,0.479,0.021,0.719c0.104,2.759-0.036,2.978-2.673,2.552c-5.886-0.951-11.767-1.949-17.511-3.598
		C492.394,555.536,492.11,555.396,491.54,555.171z"/>
	<path fill-rule="evenodd" clip-rule="evenodd" fill="#D191B9" d="M328.527,554.994c-3.32,1.378-6.711,2.134-10.122,2.798
		c-2.563,0.499-5.138,0.938-7.711,1.382c-0.467,0.08-0.952,0.053-1.429,0.082c-0.871,0.054-1.239-0.321-1.376-1.222
		c-0.431-2.855-0.451-2.72,2.356-3.164c5.154-0.814,10.326-0.24,15.487-0.373C326.66,554.473,327.596,554.819,328.527,554.994z"/>
	<path fill-rule="evenodd" clip-rule="evenodd" fill="#D291B9" d="M87.536,373.115c-1.7-3.763-2.729-7.361-3.375-11.16
		c-0.915-5.384,0.162-10.448,1.66-15.507c0.265-0.894,0.228-1.654,0.018-2.548c-1.351-5.749-2.198-11.553-2.117-17.493
		c0.104-7.676,0.031-15.355,0.015-23.033c-0.003-1.67,0.079-3.335-0.354-5c-0.234-0.898-0.233-1.954-0.005-2.854
		c0.383-1.505,0.377-3.004,0.366-4.517c-0.048-6.535,1.257-12.832,3.498-18.927c3.292-8.956,8.681-16.537,15.878-22.729
		c6.756-5.812,14.582-9.694,23.302-11.699c4.048-0.931,8.142-1.432,12.299-1.431c32.23,0.005,64.46-0.05,96.69,0.046
		c6.813,0.021,13.391,1.543,19.724,4.217c5.66,2.39,10.636,5.708,15.244,9.727c9.041,7.883,14.515,17.831,17.313,29.358
		c0.695,2.861,0.784,5.821,1.119,8.741c0.641,5.59,0.255,11.169,0.352,16.75c0.045,2.625-0.53,5.217-0.459,7.867
		c0.077,2.87,0.344,5.727,0.433,8.586c0.232,7.508-0.469,14.95-2.347,22.248c-0.27,1.046-0.273,2.014,0.114,3.014
		c1.767,4.56,2.171,9.335,1.752,14.125c-0.36,4.123-1.398,8.142-3.41,11.794c-0.91-0.002-1.414-0.527-1.922-1.031
		c-4.372-4.339-9.769-6.829-15.559-8.589c-1.445-0.439-2.922-0.801-4.408-1.075c-1.876-0.347-3.414-0.625-3.912-3.104
		c-0.469-2.336-2.826-3.399-4.943-4.152c-5.375-1.912-10.746-1.89-16.045,0.426c-1.442,0.631-2.673,1.56-3.499,2.824
		c-0.772,1.182-1.533,1.026-2.61,0.651c-4.069-1.413-6.876-4.149-8.808-7.948c-2.14-4.209-3.957-8.543-5.398-13.036
		c-0.854-2.66-1.979-5.191-3.207-7.706c-2.354-4.823-6.536-7.286-11.198-9.196c-5.075-2.079-10.397-2.841-15.859-2.972
		c-6.443-0.154-12.727,0.568-18.778,2.875c-3.077,1.173-6.093,2.546-8.36,4.986c-2.18,2.348-3.829,5.11-4.945,8.137
		c-1.323,3.585-2.372,7.27-3.896,10.784c-1.207,2.783-2.565,5.488-4.019,8.147c-1.811,3.312-5.019,4.794-8.25,6.223
		c-0.618,0.273-1.296,0.263-1.653-0.472c-1.424-2.932-4.243-3.804-7.021-4.468c-4.507-1.076-9.024-0.851-13.357,0.937
		c-2.358,0.973-4.427,2.3-4.611,5.248c-0.064,1.021-0.813,1.151-1.666,1.34c-4.59,1.018-9.178,2.076-13.422,4.194
		c-3.371,1.683-6.542,3.665-9.19,6.396C88.438,372.395,88.113,372.626,87.536,373.115z"/>
	<path fill-rule="evenodd" clip-rule="evenodd" fill="#FFFFFF" d="M187.551,415.819c-19.286,0.112-36.826-2.46-53.854-8.225
		c-10.737-3.635-20.847-8.533-29.885-15.461c-4.977-3.814-9.446-8.162-12.965-13.378c-2.146-3.181-2.539-2.496,0.625-5.287
		c4.657-4.11,10.111-6.651,16.109-8.102c1.008-0.244,2.034-0.43,3.025-0.731c2.128-0.646,3.907-0.412,6.053,0.669
		c5.877,2.961,12.022,2.758,18.048,0.1c0.646-0.285,1.341-0.674,1.764-1.211c1.2-1.528,2.813-2.163,4.592-2.761
		c4.49-1.508,7.905-4.352,10.159-8.606c2.591-4.891,4.703-9.971,6.349-15.243c0.6-1.92,1.41-3.732,2.279-5.531
		c1.825-3.773,4.766-6.299,8.571-7.99c7.773-3.455,15.899-3.818,24.197-3.053c4.025,0.371,7.819,1.502,11.524,3.059
		c3.928,1.651,6.804,4.362,8.742,8.156c1.466,2.868,2.249,5.973,3.353,8.966c1.466,3.977,3.17,7.834,5.137,11.601
		c2.506,4.8,6.472,7.597,11.488,9.107c1.038,0.313,1.811,0.747,2.568,1.561c2.493,2.681,5.849,3.505,9.328,3.764
		c4.619,0.344,9.124-0.053,13.046-2.915c0.424-0.309,0.856-0.37,1.353-0.27c7.486,1.509,14.849,3.372,20.841,8.49
		c4.699,4.014,4.217,2.853,0.982,7.394c-5.819,8.167-13.686,14.037-22.314,18.932c-12.355,7.009-25.685,11.313-39.577,13.98
		C208.235,414.918,197.282,416,187.551,415.819z"/>
	<path fill-rule="evenodd" clip-rule="evenodd" fill="#D291B9" d="M288.801,272.271c-0.675-1.576-1.355-3.149-2.025-4.726
		c-1.824-4.29-4.358-8.149-7.138-11.866c-2.069-2.767-4.563-5.136-7.062-7.486c-1.216-1.143-1.612-2.364-1.644-3.996
		c-0.146-7.484-1.592-14.702-4.804-21.513c-0.929-1.971-0.94-2.068-3.011-1.797c-3.159,0.413-6.269,1.056-9.251,2.264
		c-5.236,2.121-9.938,5.058-14.06,8.917c-0.92,0.862-1.939,1.295-3.233,1.286c-5.999-0.043-11.998-0.028-17.996-0.033
		c-0.08,0-0.16,0.002-0.24-0.001c-1.705-0.08-1.898-0.384-1.029-1.78c0.843-1.354,1.692-2.711,2.634-3.997
		c6.87-9.368,15.738-16.243,26.411-20.728c5.219-2.193,10.681-3.573,16.343-4.298c3.601-0.461,7.17-0.241,10.752-0.389
		c0.947-0.039,1.617,0.178,2.169,1.086c3.53,5.804,6.978,11.658,9.167,18.123c1.686,4.977,2.993,10.046,3.56,15.318
		c0.257,2.394,0.208,4.774,0.403,7.151c0.712,8.694,0.362,17.402,0.445,26.104c0.007,0.76,0.001,1.52,0.001,2.28
		C289.063,272.216,288.932,272.244,288.801,272.271z"/>
	<path fill-rule="evenodd" clip-rule="evenodd" fill="#D291B9" d="M83.78,271.599c0-9.998-0.241-20.004,0.077-29.992
		c0.25-7.829,2.085-15.434,4.984-22.75c2.069-5.221,4.95-10.009,7.706-14.872c0.818-1.442,1.868-1.846,3.483-1.899
		c8.068-0.267,15.9,0.893,23.483,3.626c6.581,2.372,12.613,5.716,18.024,10.21c5.515,4.58,10.302,9.759,13.998,15.918
		c0.163,0.271,0.322,0.544,0.469,0.824c0.032,0.059,0.005,0.148,0.005,0.281c-0.54,0.643-1.312,0.356-1.979,0.36
		c-5.439,0.03-10.884-0.113-16.317,0.089c-2.451,0.091-4.243-0.759-6.001-2.263c-5.285-4.519-11.146-7.988-18.026-9.49
		c-1.318-0.288-2.644-0.565-3.979-0.75c-2.075-0.287-2.473-0.049-3.354,1.835c-1.494,3.194-2.577,6.551-3.312,9.973
		c-0.9,4.195-1.529,8.458-1.504,12.774c0.006,0.98-0.37,1.567-1.083,2.217c-6.205,5.664-11.141,12.276-14.635,19.938
		c-0.33,0.725-0.58,1.486-0.893,2.219c-0.271,0.636-0.581,1.255-0.873,1.882C83.961,271.687,83.871,271.643,83.78,271.599z"/>
	<path fill-rule="evenodd" clip-rule="evenodd" fill="#FFFFFF" d="M104.542,244.4c0.258-6.798,1.474-12.86,3.771-18.698
		c0.733-1.863,0.74-1.841,2.76-1.573c6.548,0.871,12.016,4.087,17.211,7.899c0.574,0.421,1.11,0.895,2.02,1.634
		c-4.733,1.059-9.187,2.027-13.387,3.795C112.653,239.251,108.606,241.458,104.542,244.4z"/>
	<path fill-rule="evenodd" clip-rule="evenodd" fill="#FFFFFF" d="M242.492,233.726c1.949-2.069,4.054-3.349,6.126-4.65
		c4.097-2.572,8.482-4.369,13.318-5.079c1.278-0.188,1.73,0.238,2.14,1.241c1.79,4.382,3.039,8.909,3.506,13.621
		c0.164,1.653,0.664,3.292,0.374,5.313c-3.987-2.587-7.898-4.967-12.164-6.709C251.593,235.747,247.208,234.713,242.492,233.726z"/>
	<path fill-rule="evenodd" clip-rule="evenodd" fill="#F8C8D8" d="M247.132,364.386c-2.911,0.054-5.643-0.354-8.131-1.816
		c-2.298-1.351-2.374-2.968-0.103-4.304c2.836-1.668,6.005-2.09,9.222-1.927c1.573,0.08,3.14,0.499,4.684,0.868
		c0.763,0.182,1.509,0.53,2.193,0.922c2.397,1.375,2.478,2.992,0.107,4.446C252.659,364.077,249.894,364.476,247.132,364.386z"/>
	<path fill-rule="evenodd" clip-rule="evenodd" fill="#F8C8D8" d="M125.739,364.379c-2.844,0.122-5.466-0.44-7.928-1.692
		c-0.931-0.473-1.908-1.011-1.889-2.241c0.019-1.195,0.97-1.787,1.865-2.299c2.64-1.512,5.576-1.967,8.526-1.809
		c2.356,0.126,4.767,0.414,6.925,1.585c0.988,0.536,2.156,1.089,2.23,2.299c0.083,1.358-1.146,2.071-2.177,2.601
		C130.915,364.046,128.336,364.516,125.739,364.379z"/>
	<path fill-rule="evenodd" clip-rule="evenodd" fill="#D291B9" d="M186.232,462.781c16.56,0,33.122-0.146,49.679,0.059
		c9.071,0.112,17.571,2.685,25.465,7.279c3.824,2.226,7.337,4.847,10.514,7.853c4.008,3.794,7.367,8.173,10.054,13.021
		c2.883,5.201,4.885,10.739,6.082,16.56c0.319,1.554,0.507,3.14,0.677,4.719c0.694,6.447,0.671,12.928,0.404,19.382
		c-0.151,3.664-0.391,7.324-0.349,10.992c0.038,3.266,0.6,6.505,0.443,9.789c-0.274,5.731-0.765,11.431-2.214,17.001
		c-0.413,1.588-0.332,3.027,0.171,4.623c2.678,8.499,2.03,16.798-1.712,24.897c-2.722,5.893-6.58,10.953-11.285,15.329
		c-4.563,4.242-9.674,7.785-15.073,10.929c-7.568,4.408-15.636,7.625-23.958,10.214c-7.3,2.271-14.738,3.981-22.335,5.011
		c-4.256,0.576-8.514,1.047-12.79,1.46c-8.226,0.795-16.471,0.633-24.667,0.262c-10.242-0.465-20.386-2.111-30.368-4.622
		c-10.741-2.701-21.011-6.585-30.705-11.94c-7.53-4.161-14.288-9.356-20.005-15.806c-5.066-5.715-8.453-12.314-9.957-19.854
		c-1.057-5.301-0.52-10.508,1.126-15.553c0.669-2.052,0.53-3.885,0.063-5.813c-1.188-4.898-1.796-9.853-1.76-14.9
		c0.052-7.28,0.035-14.561,0.001-21.84c-0.011-2.387,0.079-4.765-0.352-7.161c-0.289-1.605-0.273-3.333,0.175-4.999
		c0.203-0.754,0.169-1.582,0.183-2.377c0.213-12.374,4.095-23.477,11.657-33.255c6.668-8.623,15.236-14.703,25.491-18.326
		c3.745-1.323,7.633-2.124,11.628-2.567c2.958-0.328,5.891-0.353,8.835-0.359c14.959-0.03,29.919-0.014,44.879-0.014
		C186.232,462.776,186.232,462.778,186.232,462.781z"/>
	<path fill-rule="evenodd" clip-rule="evenodd" fill="#D291B9" d="M283.741,487.927c-1.176-1.066-1.673-2.459-2.484-3.637
		c-2.471-3.584-5.561-6.588-8.687-9.553c-1.21-1.148-1.673-2.35-1.635-3.994c0.099-4.157-0.075-8.321,0.071-12.476
		c0.162-4.591-3.645-10.712-9.638-11.394c-4.937-0.562-9.852-0.794-14.763,0.042c-4.881,0.83-8.566,4.994-9.24,10.309
		c-0.335,2.644-0.341,2.658-2.888,2.661c-4.239,0.004-8.479-0.003-12.718-0.014c-0.557-0.002-1.124,0.001-1.668-0.099
		c-0.517-0.095-0.827-0.468-0.784-1.032c0.341-4.55,1.017-9.016,3.113-13.155c4.354-8.6,11.01-14.397,20.556-16.351
		c5.625-1.151,11.341-1.38,17.108-0.684c2.933,0.354,5.834,0.595,8.664,1.542c7.504,2.513,12.884,7.415,16.584,14.325
		c2.068,3.862,3.013,7.954,3.498,12.31c0.507,4.561,0.438,9.1,0.299,13.632c-0.167,5.438-1.106,10.78-3.858,15.625
		C284.885,486.667,284.668,487.483,283.741,487.927z"/>
	<path fill-rule="evenodd" clip-rule="evenodd" fill="#D291B9" d="M88.766,488.258c-2.287-3.655-3.718-7.242-4.528-11.101
		c-0.397-1.889-0.594-3.787-0.468-5.7c0.103-1.544-0.49-2.977-0.5-4.506c-0.025-4.229,0.385-8.413,0.88-12.61
		c0.537-4.555,2.223-8.604,4.703-12.374c4.354-6.62,10.309-11.103,18.106-12.697c5.862-1.198,11.816-1.455,17.816-0.698
		c2.693,0.339,5.359,0.588,7.947,1.477c10.437,3.584,16.829,10.867,19.623,21.42c0.588,2.224,0.855,4.524,1.008,6.829
		c0.073,1.103-0.351,1.596-1.508,1.589c-4.957-0.027-9.915-0.01-14.872,0.007c-0.856,0.003-1.324-0.293-1.398-1.223
		c-0.063-0.786-0.341-1.554-0.443-2.34c-0.677-5.192-5.534-9.54-10.881-9.801c-4.204-0.204-8.425-0.207-12.664,0.288
		c-4.904,0.573-8.227,4.269-9.548,8.537c-0.4,1.291-0.556,2.631-0.536,4.01c0.06,4.077-0.021,8.156,0.055,12.232
		c0.022,1.235-0.384,2.014-1.305,2.845c-3.802,3.434-7.164,7.266-9.921,11.605C89.913,486.709,89.427,487.331,88.766,488.258z"/>
	<path fill-rule="evenodd" clip-rule="evenodd" fill="#FFFFFF" d="M104.52,470.502c0-4.481-0.259-8.706,0.07-12.885
		c0.355-4.526,3.282-7.304,7.842-7.989c3.879-0.583,7.825-0.649,11.696-0.184c5.281,0.635,7.906,3.94,8.509,9.386
		c0.144,1.302-0.727,1.385-1.646,1.482c-4.626,0.49-9.065,1.72-13.389,3.406c-3.729,1.455-7.249,3.309-10.599,5.491
		C106.342,469.641,105.741,470.182,104.52,470.502z"/>
	<path fill-rule="evenodd" clip-rule="evenodd" fill="#FFFFFF" d="M268.084,470.73c-1.451-0.923-2.438-1.563-3.438-2.184
		c-7.017-4.351-14.574-7.206-22.795-8.23c-1.604-0.2-1.728-0.378-1.647-1.966c0.24-4.779,3.625-8.535,8.405-8.93
		c4.057-0.335,8.146-0.375,12.195,0.302c3.956,0.661,7.059,3.82,7.237,7.794C268.231,461.735,268.084,465.968,268.084,470.73z"/>
	<path fill-rule="evenodd" clip-rule="evenodd" fill="#FFFFFF" d="M410.133,236.338c15.917,0,31.834-0.09,47.75,0.026
		c15.093,0.109,28.09,5.543,38.779,16.196c8.717,8.688,13.829,19.277,15.638,31.428c0.659,4.431,0.708,8.919,0.685,13.4
		c-0.05,9.278-0.126,18.556-0.084,27.833c0.028,6.27-0.712,12.43-2.198,18.506c-0.276,1.13-0.237,2.154,0.125,3.274
		c3.749,11.584,1.563,22.252-5.261,32.075c-5.864,8.44-13.753,14.637-22.592,19.702c-12.189,6.987-25.344,11.322-39.06,14.052
		c-8.547,1.701-17.187,2.597-25.9,3.077c-6.974,0.384-13.916,0.216-20.84-0.286c-17.813-1.293-35.08-5.034-51.396-12.505
		c-10.266-4.7-19.657-10.709-27.231-19.237c-5.244-5.906-9.089-12.569-10.348-20.472c-0.826-5.185-0.636-10.372,1.023-15.403
		c0.571-1.732,0.648-3.329,0.222-5.129c-1.575-6.636-2.096-13.381-2.016-20.211c0.113-9.676-0.05-19.355-0.04-29.032
		c0.01-10.244,2.028-20.036,7.197-28.975c8.752-15.132,21.686-24.455,38.978-27.523c6.173-1.096,12.428-0.84,18.656-0.862
		c12.637-0.043,25.274-0.013,37.912-0.013C410.133,236.285,410.133,236.312,410.133,236.338z"/>
	<path fill-rule="evenodd" clip-rule="evenodd" fill="#D291B9" d="M512.88,238.255c0.055,5.463,0.153,9.933-0.971,14.305
		c-0.739,2.876-1.968,5.561-3.394,8.15c-0.581,1.057-0.97,1.023-1.642-0.044c-4.573-7.264-10.507-13.246-17.639-17.933
		c-6.724-4.419-14.134-7.257-22.146-8.475c-6.893-1.048-13.821-0.897-20.751-0.92c-3.19-0.011-3.29,0.408-3.002-3.133
		c0.5-6.152,2.522-11.752,6.449-16.669c2.333-2.92,5.049-5.284,8.174-7.249c3.083-1.938,6.491-3.025,10.035-3.652
		c5.701-1.01,11.488-0.743,17.194-0.386c6.214,0.389,11.865,2.641,16.733,6.826c5.286,4.543,8.609,10.15,10.126,16.864
		c0.469,2.078,0.678,4.235,0.802,6.367C512.983,234.615,512.88,236.938,512.88,238.255z"/>
	<path fill-rule="evenodd" clip-rule="evenodd" fill="#D291B9" d="M312.584,261.612c-2.689-3.729-4.01-7.774-4.669-12.078
		c-0.898-5.878-0.605-11.802-0.403-17.689c0.254-7.372,2.804-13.945,7.734-19.601c4.249-4.874,9.449-7.979,15.706-9.369
		c1.935-0.43,3.892-0.784,5.903-0.757c3.437,0.044,6.875-0.037,10.312,0.017c5.944,0.094,11.605,1.478,16.485,4.896
		c7.08,4.961,11.635,11.682,12.945,20.397c0.213,1.418,0.47,2.814,0.475,4.263c0.004,1.253-0.485,1.675-1.702,1.664
		c-4.236-0.038-8.475-0.083-12.71,0.012c-12.864,0.288-24.649,3.946-34.951,11.761c-5.297,4.019-9.884,8.799-13.479,14.454
		C313.809,260.246,313.436,260.943,312.584,261.612z"/>
	<path fill-rule="evenodd" clip-rule="evenodd" fill="#957DAB" d="M477.982,563.451c0.293,8.436-6.82,16.376-16.444,16.392
		c-9.013,0.015-16.305-7.469-16.352-16.573c-0.044-8.489,6.875-16.447,16.529-16.368
		C471.606,546.981,478.36,555.153,477.982,563.451z"/>
	<path fill-rule="evenodd" clip-rule="evenodd" fill="#957DAB" d="M375.256,563.416c0.251,8.587-6.899,16.392-16.421,16.425
		c-9.034,0.032-16.349-7.438-16.396-16.532c-0.046-8.55,6.865-16.455,16.495-16.407
		C368.813,546.949,375.539,555.092,375.256,563.416z"/>
	<path fill-rule="evenodd" clip-rule="evenodd" fill="#957DAB" d="M410.461,579.53c2.373,0.241,4.777,0.675,6.855,2.242
		c3.5,2.64,3.782,6.893,0.63,9.928c-1.374,1.322-3.063,2.007-4.856,2.475c-0.7,0.183-1.435,0.171-1.437,1.215
		c-0.002,1.003,0.024,1.865,1.136,2.382c1.237,0.574,2.316,0.396,3.392-0.312c1.148-0.756,2.074-1.746,2.95-2.793
		c0.585-0.7,1.275-0.971,2.086-0.368c0.71,0.527,0.632,1.253,0.354,1.948c-0.983,2.462-5.415,5.343-8.01,4.698
		c-2.295-0.569-4.303-0.66-6.609,0.012c-3.09,0.899-7.085-2.83-8.122-4.932c-0.332-0.673-0.099-1.246,0.44-1.706
		c0.573-0.49,1.204-0.48,1.737,0.006c0.526,0.479,0.954,1.067,1.436,1.599c0.764,0.84,1.679,1.509,2.699,1.964
		c1.848,0.824,3.658-0.395,3.622-2.299c-0.017-0.899-0.38-1.23-1.237-1.395c-1.336-0.255-2.61-0.753-3.765-1.499
		c-4.418-2.856-4.423-8.422-0.025-11.291C405.75,580.09,408.017,579.713,410.461,579.53z"/>
	<path fill-rule="evenodd" clip-rule="evenodd" fill="#957DAB" d="M349.808,593.772c-3.017,0.041-5.583-0.476-8.079-1.398
		c-1.138-0.422-2.172-1.031-3.084-1.813c-2.535-2.173-2.579-5.235-0.089-7.474c2.037-1.831,4.577-2.64,7.197-3.006
		c3.58-0.5,7.168-0.415,10.667,0.713c1.385,0.445,2.665,1.076,3.812,1.967c2.809,2.182,2.915,5.377,0.26,7.767
		c-1.592,1.433-3.534,2.221-5.57,2.642C353.136,593.539,351.322,593.97,349.808,593.772z"/>
	<path fill-rule="evenodd" clip-rule="evenodd" fill="#957DAB" d="M470.838,579.903c2.501-0.171,4.934,0.209,7.3,1
		c1.69,0.564,3.194,1.445,4.387,2.804c1.593,1.815,1.618,4.23,0.058,6.101c-1.167,1.398-2.714,2.245-4.394,2.793
		c-5.099,1.662-10.191,1.627-15.235-0.28c-1.056-0.399-2.008-0.993-2.869-1.708c-2.588-2.148-2.691-5.166-0.213-7.448
		c2.409-2.218,5.451-2.88,8.574-3.247C469.232,579.825,470.04,579.903,470.838,579.903z"/>
	<path fill-rule="evenodd" clip-rule="evenodd" fill="#957DAB" d="M134.938,320.677c8.788-0.415,16.603,7.323,16.526,16.476
		c-0.075,8.942-7.751,16.319-16.569,16.278c-8.761-0.04-16.479-7.207-16.461-16.44C118.452,327.704,126.223,320.303,134.938,320.677
		z"/>
	<path fill-rule="evenodd" clip-rule="evenodd" fill="#957DAB" d="M237.64,320.677c8.809-0.425,16.628,7.323,16.542,16.441
		c-0.083,8.841-7.394,16.277-16.51,16.312c-8.158,0.031-16.43-6.417-16.45-16.402C221.201,327.132,229.405,320.271,237.64,320.677z"
		/>
	<path fill-rule="evenodd" clip-rule="evenodd" fill="#957DAB" d="M235.351,291.409c5.731-0.085,10.665,1.908,14.518,6.114
		c2.149,2.346,3.399,5.21,2.333,8.552c-0.494,1.548-1.32,2.862-2.717,3.801c-3.637,2.446-7.53,3.099-11.842,2.226
		c-4.444-0.899-8.3-2.672-11.376-6.078c-2.809-3.111-3.212-7.841-1.168-10.604c1.864-2.522,4.58-3.634,7.617-3.995
		C233.583,291.321,234.472,291.409,235.351,291.409z"/>
	<path fill-rule="evenodd" clip-rule="evenodd" fill="#957DAB" d="M137.602,291.411c2.261-0.276,4.592,0.323,6.854,1.506
		c4.459,2.333,6.149,7.981,2.303,12.543c-3.773,4.477-8.744,6.523-14.415,7.023c-2.567,0.227-5.094-0.326-7.414-1.46
		c-5.063-2.476-5.923-7.528-3.443-11.91c1.258-2.223,3.198-3.754,5.362-4.978C129.924,292.397,132.821,291.161,137.602,291.411z"/>
	<path fill-rule="evenodd" clip-rule="evenodd" fill="#957DAB" d="M186.589,353.263c2.379-0.054,4.654,0.586,6.668,2.023
		c3.778,2.695,3.941,7.44,0.349,10.389c-1.313,1.078-2.827,1.803-4.52,2.07c-0.707,0.111-1.244,0.32-1.214,1.157
		c0.031,0.847-0.251,1.785,0.781,2.317c1.07,0.552,2.115,0.619,3.201,0.052c1.083-0.565,1.942-1.386,2.755-2.275
		c0.374-0.409,0.729-0.877,1.192-1.153c0.585-0.349,1.237-0.275,1.748,0.258c0.439,0.458,0.44,0.975,0.219,1.55
		c-1.37,3.563-6.615,5.824-10.172,4.368c-0.648-0.266-1.208-0.711-2.01-0.279c-1.417,0.763-2.884,1.343-4.57,0.791
		c-2.12-0.694-3.807-1.971-5.225-3.648c-0.256-0.303-0.526-0.617-0.694-0.97c-0.327-0.686-0.452-1.462,0.231-1.963
		c0.725-0.533,1.564-0.444,2.131,0.292c0.837,1.088,1.771,2.038,2.929,2.792c0.857,0.558,1.746,0.764,2.732,0.553
		c1.296-0.277,1.748-0.878,1.831-2.126c0.085-1.275-0.617-1.57-1.702-1.798c-1.896-0.4-3.626-1.221-4.987-2.677
		c-2.425-2.594-2.443-6.04-0.012-8.61C180.489,354.007,183.327,353.185,186.589,353.263z"/>
	<path fill-rule="evenodd" clip-rule="evenodd" fill="#957DAB" d="M186.111,616.387c-8.637,0.154-16.55-2.124-23.564-7.208
		c-3.724-2.699-6.365-6.25-7.403-10.813c-1.165-5.119,0.195-9.615,3.591-13.536c5.216-6.021,12.016-9.008,19.721-10.259
		c2.825-0.459,5.657-1.043,8.519-0.873c6.148,0.364,12.225,1.328,17.777,4.126c4.889,2.464,9.112,5.681,11.653,10.877
		c2.419,4.946,1.37,12.56-2.471,16.797c-5.631,6.212-12.783,9.238-20.918,10.451C190.707,616.292,188.42,616.351,186.111,616.387z"
		/>
	<path fill-rule="evenodd" clip-rule="evenodd" fill="#957DAB" d="M134.89,547.237c9.184-0.38,16.587,7.462,16.571,16.413
		c-0.017,8.772-7.515,16.339-16.519,16.312c-9.028-0.027-16.469-7.256-16.499-16.387
		C118.414,554.677,125.668,546.933,134.89,547.237z"/>
	<path fill-rule="evenodd" clip-rule="evenodd" fill="#957DAB" d="M237.66,547.237c9.218-0.407,16.422,7.499,16.521,16.199
		c0.104,9.141-7.746,16.648-16.526,16.534c-8.779-0.113-16.357-6.78-16.447-16.424C221.119,554.057,229.113,546.849,237.66,547.237z
		"/>
	<path fill-rule="evenodd" clip-rule="evenodd" fill="#957DAB" d="M246.939,593.774c-3.721,0.316-7.007-0.565-10.013-2.378
		c-2.63-1.586-4.269-5.011-1.018-7.958c1.286-1.166,2.744-1.991,4.327-2.48c4.941-1.529,9.892-1.44,14.751,0.415
		c1.811,0.691,3.451,1.639,4.338,3.527c0.884,1.88,0.726,3.552-0.644,5.091c-0.965,1.085-2.125,1.91-3.497,2.432
		C252.47,593.454,249.698,594.122,246.939,593.774z"/>
	<path fill-rule="evenodd" clip-rule="evenodd" fill="#957DAB" d="M125.605,593.806c-3.813,0.179-7.271-0.499-10.334-2.687
		c-2.862-2.045-3.132-5.29-0.673-7.772c1.166-1.177,2.623-1.878,4.124-2.361c5.022-1.619,10.057-1.463,14.978,0.437
		c1.872,0.723,3.539,1.792,4.374,3.827c0.716,1.749,0.504,3.269-0.732,4.66c-1.653,1.861-3.812,2.82-6.17,3.417
		C129.297,593.8,127.396,593.912,125.605,593.806z"/>
	<path fill-rule="evenodd" clip-rule="evenodd" fill="#957DAB" d="M467.518,378.633c-8.275-0.238-15.691-3.154-22.261-8.202
		c-11.432-8.784-18.02-20.536-20.687-34.57c-1.599-8.406-1.13-16.713,1.857-24.78c3.294-8.895,8.984-15.627,18.024-19.067
		c7.956-3.027,15.863-2.329,23.57,0.953c10.256,4.367,17.707,11.861,23.214,21.396c3.676,6.366,6.107,13.209,7.029,20.505
		c1.326,10.497,0.163,20.611-5.649,29.743c-5.101,8.013-12.327,12.809-21.914,13.764
		C469.67,378.478,468.654,378.756,467.518,378.633z"/>
	<path fill-rule="evenodd" clip-rule="evenodd" fill="#957DAB" d="M396.676,326.81c-0.451,13.725-4.892,25.947-13.881,36.42
		c-5.475,6.378-12.088,11.106-20.144,13.725c-16.188,5.262-31.742-2.516-37.979-18.271c-3.113-7.866-3.651-16-2.45-24.275
		c1.944-13.398,7.944-24.694,18-33.767c5.692-5.136,12.279-8.748,19.881-9.984c11.918-1.939,21.753,1.879,29.092,11.566
		c4.312,5.69,6.41,12.262,7.107,19.32C396.475,323.291,396.798,325.028,396.676,326.81z"/>
	<path fill-rule="evenodd" clip-rule="evenodd" fill="#957DAB" d="M410.167,353.346c2.371,0.018,4.587,0.596,6.592,1.881
		c4.271,2.736,4.41,8.031,0.293,10.969c-1.119,0.798-2.371,1.287-3.696,1.652c-1.777,0.489-2.044,0.948-1.692,2.496
		c0.236,1.044,1.891,1.905,3.108,1.51c1.397-0.454,2.53-1.349,3.495-2.449c0.368-0.419,0.675-0.9,1.078-1.279
		c0.528-0.496,1.167-0.509,1.761-0.109c0.615,0.414,0.704,1.044,0.508,1.707c-0.965,3.265-6.559,6.051-9.641,4.663
		c-1.272-0.573-2.268-0.728-3.532-0.021c-1.648,0.922-3.394,0.743-5.036-0.197c-1.68-0.962-3.197-2.107-4.292-3.749
		c-0.549-0.823-0.79-1.656,0.074-2.338c0.866-0.683,1.671-0.331,2.244,0.507c0.93,1.359,2.164,2.364,3.628,3.052
		c1.918,0.903,3.695-0.212,3.679-2.169c-0.008-0.891-0.372-1.282-1.197-1.466c-1.411-0.315-2.746-0.845-3.969-1.636
		c-4.276-2.77-4.28-8.397,0.005-11.134C405.581,353.952,407.792,353.355,410.167,353.346z"/>
	<path fill-rule="evenodd" clip-rule="evenodd" fill="#68597A" d="M474.984,563.55c0.276,7.05-5.515,13.239-13.151,13.335
		c-7.961,0.101-13.632-5.701-13.68-13.576c-0.049-7.874,6.052-13.408,13.381-13.464C469.819,549.781,475.423,556.333,474.984,563.55
		z"/>
	<path fill-rule="evenodd" clip-rule="evenodd" fill="#68597A" d="M372.262,563.513c0.284,7.103-5.522,13.223-13.133,13.384
		c-8.077,0.172-13.756-6.318-13.771-13.557c-0.014-7.112,5.838-13.529,13.381-13.525
		C366.615,549.819,372.479,555.685,372.262,563.513z"/>
	<path fill-rule="evenodd" clip-rule="evenodd" fill="#68597A" d="M410.153,582.766c1.572-0.155,3.037,0.152,4.445,0.8
		c1.502,0.69,2.585,1.86,2.545,3.47c-0.036,1.453-0.951,2.597-2.387,3.324c-3.372,1.712-7.764,1.407-10.097-0.831
		c-1.744-1.674-1.742-3.244,0.026-4.918C406.228,583.153,408.061,582.529,410.153,582.766z"/>
	<path fill-rule="evenodd" clip-rule="evenodd" fill="#F8C8D8" d="M349.753,590.952c-2.468-0.222-4.852-0.403-7.083-1.382
		c-0.365-0.161-0.729-0.332-1.071-0.535c-2.483-1.467-2.5-2.884-0.081-4.382c1.596-0.987,3.363-1.491,5.185-1.724
		c3.284-0.42,6.539-0.236,9.646,1.043c0.731,0.302,1.463,0.683,2.075,1.174c1.301,1.042,1.26,2.382-0.118,3.37
		C355.731,590.363,352.705,590.663,349.753,590.952z"/>
	<path fill-rule="evenodd" clip-rule="evenodd" fill="#F8C8D8" d="M471.039,582.757c2.962,0.12,5.885,0.405,8.408,2.199
		c1.667,1.185,1.739,2.066,0.281,3.429c-0.403,0.376-0.847,0.773-1.347,0.975c-4.86,1.95-9.751,2.154-14.625,0.061
		c-1.174-0.504-2.579-1.14-2.589-2.538c-0.012-1.493,1.409-2.238,2.646-2.78C466.103,583.1,468.533,582.704,471.039,582.757z"/>
	<path fill-rule="evenodd" clip-rule="evenodd" fill="#68597A" d="M121.649,336.892c-0.458-7.317,6.355-13.565,13.466-13.396
		c7.395,0.175,13.385,5.904,13.359,13.409c-0.027,8.101-6.311,13.544-13.733,13.555C127.417,350.47,121.062,343.726,121.649,336.892
		z"/>
	<path fill-rule="evenodd" clip-rule="evenodd" fill="#68597A" d="M224.377,337.012c-0.519-7.442,6.368-13.605,13.342-13.524
		c7.72,0.089,13.494,6.381,13.517,13.292c0.027,8.003-6.365,13.595-13.623,13.699C230.413,350.581,223.749,343.684,224.377,337.012z
		"/>
	<path fill-rule="evenodd" clip-rule="evenodd" fill="#FFFFFF" d="M235.565,294.213c4.485,0.094,8.412,1.565,11.633,4.764
		c0.744,0.738,1.357,1.574,1.805,2.516c1.098,2.308,0.479,4.61-1.583,6.134c-0.986,0.729-2.1,1.231-3.271,1.404
		c-5.76,0.853-10.936-0.353-15.178-4.58c-0.338-0.336-0.659-0.699-0.936-1.087c-2.46-3.441-1.385-6.909,2.59-8.421
		C232.219,294.337,233.866,294.137,235.565,294.213z"/>
	<path fill-rule="evenodd" clip-rule="evenodd" fill="#FFFFFF" d="M130.981,309.292c-1.244,0.018-3.053-0.164-4.745-1.016
		c-3.198-1.61-4.098-4.528-2.216-7.577c1.761-2.853,4.49-4.472,7.569-5.55c3.243-1.135,6.571-1.414,9.868-0.382
		c4.639,1.451,5.731,5.327,2.683,9.121C141.477,307.202,136.608,309.298,130.981,309.292z"/>
	<path fill-rule="evenodd" clip-rule="evenodd" fill="#68597A" d="M193.211,361.137c-0.051,1.275-1.329,2.34-2.609,2.959
		c-3.095,1.496-6.323,1.524-9.288-0.447c-3.08-2.048-2.057-4.901,0.396-6.249c2.828-1.554,5.77-1.683,8.728-0.373
		C192.076,357.753,193.158,359.243,193.211,361.137z"/>
	<path fill-rule="evenodd" clip-rule="evenodd" fill="#FFFFFF" d="M184.984,613.479c-5.549-0.157-12.151-1.419-18.175-4.971
		c-1.945-1.147-3.672-2.551-5.208-4.202c-5.19-5.581-5.257-12.707-0.129-18.343c3.208-3.525,7.232-5.764,11.73-7.172
		c11.023-3.45,21.744-2.83,32.057,2.567c2.95,1.544,5.413,3.703,7.291,6.464c3.345,4.916,3.082,10.719-0.591,15.365
		c-2.76,3.492-6.36,5.795-10.425,7.423C196.688,612.552,191.597,613.475,184.984,613.479z"/>
	<path fill-rule="evenodd" clip-rule="evenodd" fill="#68597A" d="M134.89,550.111c7.304-0.388,13.638,5.773,13.588,13.348
		c-0.054,8.103-6.243,13.458-13.5,13.542c-7.408,0.086-13.532-6.685-13.45-13.609C121.618,555.89,128.205,549.685,134.89,550.111z"
		/>
	<path fill-rule="evenodd" clip-rule="evenodd" fill="#68597A" d="M224.377,563.49c-0.496-7.341,6.364-13.504,13.421-13.469
		c6.867,0.035,13.465,5.826,13.442,13.357c-0.024,7.984-6.33,13.526-13.438,13.631C230.276,577.12,223.734,570.232,224.377,563.49z"
		/>
	<path fill-rule="evenodd" clip-rule="evenodd" fill="#F8C8D8" d="M247.388,590.913c-3.331,0.101-5.963-0.464-8.38-1.809
		c-2.326-1.294-2.395-2.978-0.113-4.285c3.063-1.756,6.447-2.301,9.919-1.89c1.401,0.165,2.855,0.268,4.207,0.823
		c0.961,0.396,1.944,0.751,2.749,1.421c1.473,1.226,1.467,2.34-0.08,3.478c-2.056,1.511-4.462,2.042-6.952,2.254
		C248.104,590.958,247.462,590.913,247.388,590.913z"/>
	<path fill-rule="evenodd" clip-rule="evenodd" fill="#F8C8D8" d="M125.552,590.93c-2.766,0.097-5.387-0.471-7.841-1.756
		c-0.857-0.449-1.731-0.953-1.791-2.063c-0.065-1.213,0.763-1.86,1.722-2.361c3.128-1.634,6.461-2.265,9.952-1.801
		c1.963,0.261,3.959,0.507,5.727,1.555c0.968,0.574,2.138,1.119,2.165,2.35c0.028,1.231-1.101,1.931-2.066,2.441
		C130.972,590.589,128.302,590.998,125.552,590.93z"/>
	<path fill-rule="evenodd" clip-rule="evenodd" fill="#D291B9" d="M495.661,343.362c0.363,6.858-1.857,14.163-6.227,20.81
		c-4.02,6.113-9.831,9.736-16.93,11.12c-5.857,1.142-11.578,0.126-17.014-2.22c-5.948-2.568-11.122-6.332-15.352-11.217
		c-4.197-4.848-7.565-10.256-9.812-16.327c-1.89-5.11-3.044-10.317-3.464-15.785c-0.563-7.342,0.552-14.358,3.731-20.871
		c3.521-7.211,9.028-12.496,17.048-14.679c6.403-1.743,12.642-1.123,18.729,1.343c4.549,1.842,8.554,4.488,12.223,7.8
		c4.688,4.231,8.376,9.188,11.271,14.702c2.677,5.096,4.401,10.565,5.313,16.297C495.6,336.966,495.562,339.577,495.661,343.362z"/>
	<path fill-rule="evenodd" clip-rule="evenodd" fill="#D291B9" d="M324.709,342.482c-0.276-10.632,2.841-19.644,7.914-28.072
		c4.5-7.478,10.555-13.436,18.268-17.5c4.084-2.152,8.488-3.592,13.26-3.627c3.951-0.029,7.78,0.278,11.46,1.881
		c3.711,1.616,6.825,3.926,9.58,6.917c4.871,5.287,7.194,11.693,8.074,18.564c1.519,11.861-1.217,22.914-7.287,33.196
		c-2.414,4.089-5.278,7.8-8.742,11.021c-5.656,5.261-12.133,9.094-19.833,10.43c-7.124,1.237-13.819-0.111-19.777-4.272
		c-5.055-3.53-8.366-8.469-10.519-14.188C325.29,352.005,324.349,347.016,324.709,342.482z"/>
	<path fill-rule="evenodd" clip-rule="evenodd" fill="#68597A" d="M410.111,365.39c-1.972-0.334-4.04-0.549-5.613-2.117
		c-1.672-1.667-1.571-4.017,0.406-5.304c3.536-2.3,6.958-2.299,10.499-0.015c1.983,1.28,2.065,3.593,0.448,5.31
		C414.294,364.918,412.249,365.124,410.111,365.39z"/>
	<path fill-rule="evenodd" clip-rule="evenodd" fill="#FEFEFE" d="M461.554,565.732c-0.018,1.478-0.403,2.825-1.452,3.912
		c-1.516,1.571-3.538,1.465-4.952-0.239c-1.621-1.952-1.666-5.333-0.098-7.324c1.554-1.972,3.896-1.938,5.423,0.076
		C461.195,563.107,461.563,564.331,461.554,565.732z"/>
	<path fill-rule="evenodd" clip-rule="evenodd" fill="#FEFEFE" d="M366.436,565.471c0.012,1.274-0.275,2.34-0.847,3.314
		c-1.509,2.57-4.329,2.633-5.942,0.145c-1.193-1.841-1.172-4.736,0.049-6.551c1.591-2.363,4.297-2.341,5.825,0.067
		C366.127,563.404,366.392,564.478,366.436,565.471z"/>
	<path fill-rule="evenodd" clip-rule="evenodd" fill="#FEFEFE" d="M135.004,336.961c-0.041-1.444,0.248-2.67,1.05-3.738
		c1.516-2.019,3.937-2.004,5.446,0.025c1.344,1.808,1.429,4.873,0.188,6.81c-1.538,2.399-4.336,2.384-5.863-0.023
		C135.202,339.052,134.987,337.974,135.004,336.961z"/>
	<path fill-rule="evenodd" clip-rule="evenodd" fill="#FEFEFE" d="M237.78,336.854c-0.098,1.424-0.458,2.801-1.498,3.904
		c-1.374,1.457-3.237,1.467-4.662,0.057c-1.892-1.871-2.037-5.642-0.296-7.727c1.558-1.867,3.844-1.827,5.296,0.123
		C237.407,334.268,237.726,335.5,237.78,336.854z"/>
	<path fill-rule="evenodd" clip-rule="evenodd" fill="#957DAB" d="M186.312,579.829c2.493-0.15,4.839,0.46,6.937,1.974
		c3.77,2.718,3.94,7.463,0.359,10.416c-1.325,1.093-2.876,1.722-4.539,2.056c-0.707,0.142-1.229,0.342-1.198,1.175
		c0.031,0.851-0.236,1.784,0.796,2.313c1.075,0.551,2.118,0.602,3.204,0.034c1.085-0.567,1.938-1.398,2.752-2.285
		c0.323-0.352,0.611-0.757,0.992-1.032c0.567-0.409,1.236-0.412,1.789,0.019c0.567,0.44,0.624,1.041,0.347,1.725
		c-1.458,3.605-6.599,5.785-10.236,4.291c-0.671-0.276-1.249-0.634-2.015-0.191c-3.155,1.825-5.828,0.703-8.276-1.472
		c-0.652-0.579-1.234-1.247-1.796-1.918c-0.611-0.73-0.889-1.568-0.182-2.379c0.574-0.659,1.699-0.463,2.446,0.525
		c0.892,1.179,1.962,2.087,3.26,2.762c1.011,0.525,1.974,0.417,2.981-0.057c1.01-0.476,1.027-1.309,0.998-2.218
		c-0.03-0.93-0.616-1.149-1.405-1.298c-1.506-0.284-2.889-0.887-4.139-1.802c-3.875-2.836-3.946-7.635-0.111-10.527
		C181.329,580.392,183.669,579.698,186.312,579.829z"/>
	<path fill-rule="evenodd" clip-rule="evenodd" fill="#FEFEFE" d="M142.417,564.994c0.056,1.672-0.281,2.968-1.183,4.07
		c-1.391,1.699-3.518,1.765-5,0.173c-1.807-1.94-1.851-5.772-0.089-7.748c1.481-1.66,3.513-1.668,4.993,0.006
		C142.085,562.564,142.466,563.845,142.417,564.994z"/>
	<path fill-rule="evenodd" clip-rule="evenodd" fill="#FEFEFE" d="M233.841,560.235c1.188,0.068,2.091,0.666,2.779,1.623
		c1.309,1.822,1.343,4.936,0.084,6.808c-1.54,2.29-4.199,2.301-5.732,0.023c-1.207-1.792-1.25-4.816-0.07-6.609
		C231.591,561.035,232.492,560.29,233.841,560.235z"/>
	<path fill-rule="evenodd" clip-rule="evenodd" fill="#957DAB" d="M477.86,336.996c0.651,8.734-7.174,16.833-16.52,16.758
		c-8.892-0.071-16.135-7.595-16.24-16.384c-0.107-8.947,7.395-16.676,16.377-16.708C470.148,320.632,478.331,328.042,477.86,336.996
		z"/>
	<path fill-rule="evenodd" clip-rule="evenodd" fill="#957DAB" d="M471.35,353.804c2.101-0.19,4.436,0.167,6.727,0.952
		c1.704,0.583,3.145,1.511,4.325,2.866c1.869,2.146,1.662,4.911-0.527,6.762c-1.684,1.424-3.688,2.242-5.789,2.698
		c-4.428,0.962-8.821,0.801-13.107-0.838c-1.134-0.434-2.131-1.103-3.051-1.847c-2.614-2.113-2.461-5.731,0.257-7.761
		c2.439-1.824,5.226-2.636,8.221-2.823C469.277,353.758,470.157,353.804,471.35,353.804z"/>
	<path fill-rule="evenodd" clip-rule="evenodd" fill="#957DAB" d="M342.469,337.205c-0.536-8.494,7.258-16.473,16.242-16.523
		c9.086-0.051,16.612,7.999,16.527,16.584c-0.086,8.709-7.369,16.479-16.468,16.46C349.681,353.707,342.047,345.938,342.469,337.205
		z"/>
	<path fill-rule="evenodd" clip-rule="evenodd" fill="#957DAB" d="M349.547,367.778c-3.53-0.484-7.207-0.589-10.345-2.866
		c-3.063-2.223-3.345-5.156-0.743-7.852c2.016-2.089,4.651-2.881,7.309-3.138c3.14-0.304,6.36-0.478,9.493,0.403
		c1.778,0.5,3.447,1.208,4.929,2.335c2.446,1.86,2.755,5.035,0.706,7.298c-0.765,0.844-1.676,1.454-2.709,1.914
		C355.461,367.087,352.57,367.518,349.547,367.778z"/>
	<path fill-rule="evenodd" clip-rule="evenodd" fill="#68597A" d="M186.271,591.404c-2.329,0.247-4.333-0.35-5.904-2.055
		c-1.384-1.503-1.341-3.357,0.174-4.647c3.161-2.69,8.167-2.545,10.923-0.498c2.44,1.812,2.388,4.015-0.063,5.861
		C189.869,591.219,188.126,591.665,186.271,591.404z"/>
	<path fill-rule="evenodd" clip-rule="evenodd" fill="#68597A" d="M461.466,350.475c-6.681,0.581-13.586-6.09-13.4-13.317
		c0.189-7.359,5.562-13.563,13.579-13.477c7.622,0.082,13.227,5.752,13.371,13.943C475.122,343.635,469.026,351.106,461.466,350.475
		z"/>
	<path fill-rule="evenodd" clip-rule="evenodd" fill="#F8C8D8" d="M470.77,364.676c-2.334-0.321-4.524-0.283-6.524-1.222
		c-0.433-0.203-0.912-0.325-1.31-0.579c-0.87-0.558-1.852-1.107-1.867-2.308c-0.016-1.239,0.971-1.799,1.911-2.229
		c5.31-2.427,10.657-2.535,15.91,0.096c2.476,1.24,2.428,3.009-0.013,4.403C476.307,364.304,473.41,364.442,470.77,364.676z"/>
	<path fill-rule="evenodd" clip-rule="evenodd" fill="#68597A" d="M358.702,350.48c-6.784,0.467-13.534-5.961-13.403-13.518
		c0.131-7.552,6.317-13.32,13.481-13.336c7.174-0.016,13.496,5.81,13.524,13.535C372.332,344.468,365.743,351.021,358.702,350.48z"
		/>
	<path fill-rule="evenodd" clip-rule="evenodd" fill="#F8C8D8" d="M349.781,356.664c2.529-0.161,5.165,0.305,7.602,1.676
		c0.906,0.511,1.912,1.014,1.878,2.253c-0.032,1.193-0.979,1.795-1.884,2.289c-2.511,1.369-5.311,1.833-8.076,1.757
		c-2.019-0.056-4.141-0.144-6.089-1.035c-0.727-0.333-1.456-0.636-2.114-1.09c-1.98-1.369-1.938-2.73,0.177-4.002
		C342.946,357.505,345.135,356.49,349.781,356.664z"/>
	<path fill-rule="evenodd" clip-rule="evenodd" fill="#FEFEFE" d="M461.587,337.141c0.072,1.333-0.245,2.546-1.069,3.602
		c-1.57,2.014-3.94,1.975-5.444-0.084c-1.393-1.907-1.396-5.086-0.006-7c1.533-2.113,4.128-2.079,5.598,0.083
		C461.362,334.767,461.663,335.91,461.587,337.141z"/>
	<path fill-rule="evenodd" clip-rule="evenodd" fill="#FEFEFE" d="M366.482,337.146c0.039,1.314-0.313,2.521-1.096,3.57
		c-1.503,2.012-3.909,2.006-5.418,0.014c-1.45-1.917-1.515-4.958-0.146-6.945c1.602-2.326,4.355-2.238,5.831,0.185
		C366.228,334.909,366.483,335.893,366.482,337.146z"/>
</g>
</svg>
