<?xml version="1.0" encoding="utf-8"?>
<!-- Generator: Adobe Illustrator 16.0.3, SVG Export Plug-In . SVG Version: 6.00 Build 0)  -->
<!DOCTYPE svg PUBLIC "-//W3C//DTD SVG 1.1//EN" "http://www.w3.org/Graphics/SVG/1.1/DTD/svg11.dtd">
<svg version="1.1" id="Capa_1" xmlns="http://www.w3.org/2000/svg" xmlns:xlink="http://www.w3.org/1999/xlink" x="0px" y="0px"
	 width="4019px" height="1796px" viewBox="0 0 4019 1796" enable-background="new 0 0 4019 1796" xml:space="preserve">
<g>
	<path fill-rule="evenodd" clip-rule="evenodd" fill="#FFFFFF" d="M2,711C2,474.333,2,237.667,2,1c389.333,0,778.667,0,1168,0
		c0.653,1.092,0.491,2.045-0.48,2.864c-11.037,4.317-22.908,3.757-34.338,5.815c-45.311,8.159-90.356,17.294-132.859,35.802
		c-12.957,5.642-24.551,13.354-33.941,24.127c-12.999,14.913-13.756,32.908,0.246,46.681c26.79,26.353,36.435,58.239,36.338,95.027
		c-0.141,53.655-7.973,106.221-19.474,158.333c-13.452,60.95-31.11,120.649-56.4,177.882
		c-18.12,41.008-41.765,77.462-77.396,106.308c-25.376,20.543-38.793,49.64-42.76,82.347c-1.231,10.152-2.212,20.25-0.809,30.775
		c3.432,25.739,17.303,43.365,39.207,55.7c23.887,13.453,50.376,17.99,76.972,19.07c45.238,1.836,90.612,1.78,135.496-5.858
		c25.81-4.393,48.935-14.399,67.984-33.286c17.854-17.701,25.056-39.349,27.602-63.611c2.673-25.477-7.091-45.894-22.829-64.858
		c-14.391-17.34-30.901-33.285-38.476-55.492c-11.468-33.622-13.903-67.611-5.221-102.218c1.059-4.223,2.896-8.14,4.47-12.174
		c7.816-20.041,23.575-28.271,43.836-28.667c25.09-0.489,48.983,5.332,71.245,16.912c17.77,9.243,27.632,23.615,26.297,44.413
		c-1.665,25.939-3.389,51.852-11.521,76.835c-5.61,17.235-12.802,33.607-24.461,47.729c-3.63,4.397-6.9,9.105-8.098,14.777
		c-6.1,28.897-9.337,57.894-2.186,87.126c8.026,32.809,28.999,53.883,59.917,65.883c21.409,8.31,44.01,11.182,66.582,12.249
		c60.193,2.848,119.97,1.026,177.013-22.156c36.328-14.764,64.521-37.235,74.668-77.246c0.493-1.943,1.448-3.723,2.974-5.129
		c4.935-0.581,4.752,3.805,6.341,6.492c3.484,16.286,6.676,32.628,15.361,47.276c11.593,19.553,28.875,31.793,49.637,39.938
		c22.771,8.933,46.829,10.871,70.715,11.23c62.288,0.937,124.565,3.761,186.875,2.219c23.29-0.577,46.424-3.735,69.677-5.187
		c18.337-1.145,36.645-0.678,54.958-0.651c30.225,0.044,53.251-12.422,69.277-38.024c14.434-23.058,21.274-48.743,25.967-75.126
		c7.85-44.131,9.936-88.7,8.452-133.389c-0.417-12.546-1.378-25.251-4.117-37.696c-8.826-40.098-54.638-65.214-93.206-51.503
		c-26.86,9.549-49.115,26.576-72.111,42.479c-10.828,7.488-22.383,12.894-35.396,15.583c-11.602,2.398-20.175-1.325-27.061-10.437
		c-7.969-10.544-12.941-22.599-16.755-35.021c-9.999-32.56-16.903-65.667-19.31-99.83c-3.287-46.636-1.641-93.277-1.322-139.89
		c0.179-26.223,3.447-52.445,9.775-78.177c4.651-18.911,12.412-34.938,27.371-48.554c28.872-26.28,30.296-65.922,5.025-95.691
		c-9.954-11.725-23.335-18.611-37.537-23.94c-20.17-7.568-41.296-10.49-62.558-12.512c-33.895-3.224-67.783-4.412-101.548,1.617
		c-22.43,4.004-44.143,10.023-64.322,21.044c-33.868,18.497-49.245,51.625-40.545,88.247c3.054,12.854,9.214,24.025,21.121,30.23
		c18.885,9.841,27.448,25.938,31.838,45.827c4.98,22.565,7.604,45.42,8.342,68.346c1.02,31.635,1.436,63.378-0.023,94.979
		c-2.288,49.536-7.063,98.9-12.214,148.26c-4.793,45.933-19.438,88.212-38.784,129.517c-10.601,22.634-19.984,45.84-25.28,70.445
		c-0.563,2.618-1.371,5.158-3.023,7.332c-0.754,0.9-1.725,1.271-2.887,1.119c-5.476-8.659-3.38-18.709-4.471-28.021
		c-2.669-22.784-9.984-43.176-28.093-57.735c-30.404-24.445-45.833-57.776-59.087-93.058
		c-38.269-101.867-66.514-206.61-90.002-312.672c-12.277-55.436-30.668-107.977-61.498-156.102
		c-20.765-32.415-50.241-51.422-86.065-62.46c-14.022-4.32-28.912-4.66-42.764-9.665c-0.905-0.835-1.019-1.77-0.348-2.801
		c940.667,0,1881.333,0,2822,0c0,28.667,0,57.333,0,86c-1.145,0.638-2.126,0.445-2.948-0.574
		c-3.557-7.876-4.648-16.605-9.015-24.275c-10.308-18.107-26.531-28.806-45.2-36.034c-29.764-11.523-60.663-13.793-92.384-11.236
		c-26.681,2.151-53.145,4.72-78.383,14.137c-24.599,9.177-45.168,23.422-54.612,49.226c-10.577,28.896-6.058,64.238,24.022,83.203
		c15.361,9.685,20.187,26.085,24.29,42.284c4.506,17.787,5.683,36.11,7.165,54.401c3.127,38.612,1.448,77.255,1.765,115.881
		c0.157,19.143-3.765,37.777-9.491,55.968c-8.664,27.524-29.085,41.494-56.192,46.457c-29.114,5.33-58.292,5.593-87.208-2.083
		c-30.542-8.109-49.658-26.991-56.304-58.31c-5.208-24.544-7.609-49.39-8.175-74.366c-0.934-41.316,0.58-82.566,5.818-123.618
		c0.973-7.62,2.866-15.053,4.265-22.583c2.848-15.333,9.958-28.079,21.565-38.498c5.702-5.118,10.824-10.831,15.341-17.079
		c21.593-29.871,15.517-71.243-13.604-93.883c-21.33-16.583-46.47-22.737-72.327-26.653c-48.795-7.39-97.495-8.729-145.698,4.378
		c-23.471,6.382-45.06,16.156-62.458,33.934c-21.994,22.472-29.509,70.484,0.967,95.19c28.887,23.419,36.218,55.255,39.534,89.488
		c2.577,26.593,3.036,53.286,1.798,79.863c-1.798,38.545-3.927,77.117-5.016,115.651c-2.134,75.571-4.113,151.362,17.378,225.245
		c10.849,37.295,26.967,71.764,53.398,100.654c17.318,18.929,38.474,32.972,61.524,43.819
		c38.457,18.097,79.58,25.997,121.548,30.761c21.563,2.448,43.267,2.859,64.78,3.249c31.103,0.563,61.367-5.94,90.029-19.565
		c51.141-24.311,89.859-62.619,123.069-107.175c31.619-42.423,52.524-89.517,59.005-142.468c0.121-0.992,0.442-1.972,0.449-2.963
		c0.356-52.628,1.879-105.265-0.842-157.874c-0.224-4.32-0.637-8.634-0.637-12.967c-0.009-36.329-0.992-72.693,0.28-108.978
		c1.224-34.885,2.93-69.892,11.938-103.988c2.96-11.206,7.46-21.38,16.255-29.245c14.957-13.375,26.611-28.861,31.341-48.805
		c0.829-1.021,1.82-1.209,2.968-0.571c0,564,0,1128,0,1692c-334.667,0-669.333,0-1004,0c-0.65-1.093-0.498-2.06,0.449-2.904
		c14.714-5.896,30.671-5.631,45.891-9.152c10.352-2.396,20.933-4.468,31.579-4.936c22.818-1.002,38.513-15.582,54.32-28.958
		c11.574-9.794,12.676-23.611,6.798-37.646c-3.779-9.021-9.003-17.221-15.807-24.139c-24.504-24.913-38.128-55.841-49.754-88.016
		c-13.315-36.849-20.123-75.297-28.269-113.408c-11.513-53.865-35.354-100.977-74.923-139.776
		c-7.494-7.348-15.794-13.097-25.518-17.142c-13.545-5.635-26.438-12.687-39.444-19.452c-8.397-4.367-15.319-10.68-21.158-18.056
		c-7.06-8.92-6.539-12.837,2.521-19.791c14.541-11.159,28.704-22.572,40.738-36.657c28.4-33.237,43.01-71.199,44.092-115.08
		c0.919-37.216-8.236-70.546-31.955-99.479c-17.941-21.887-41.185-36.817-66.434-48.567
		c-36.398-16.938-74.815-24.546-115.056-26.538c-53.655-2.657-107.272-1.597-160.878-1.206
		c-36.244,0.264-72.627,2.919-106.687,17.996c-15.123,6.695-28.52,15.502-40.208,27.347c-21.194,21.479-22.662,63.109-9.256,85
		c2.822,4.607,5.833,9.375,10.732,11.612c28.191,12.873,32.791,38.651,36.949,65.222c7.51,47.984,3.219,95.676-2.594,143.339
		c-7.706,63.177-16.653,126.183-27.456,188.911c-3.337,19.381-7.927,38.53-11.345,57.886c-4.639,26.266-17.256,47.831-35.747,66.676
		c-18.421,18.772-23.514,41.662-19.579,67.366c1.715,11.202,2.863,22.39,6.378,33.271c8.65,26.785,26.537,44.09,53.032,52.826
		c22.629,7.462,46.068,10.599,69.674,12.639c34.902,3.017,69.932,2.976,104.858,1.803c31.885-1.071,63.792-2.613,95.507-7.452
		c35.454-5.41,58.152-24.104,68.398-58.513c6.34-21.29,8.79-43.09,9.205-65.08c0.313-16.521-4.751-32.414-16.405-44.001
		c-31.874-31.688-42.759-72.063-50.075-114.211c-5.302-30.536-10.551-61.084-14.666-91.81c-2.025-15.116,6.285-25.045,19.967-24.395
		c5.824,0.276,9.951,3.393,13.732,7.304c11.217,11.6,16.922,26.264,22.114,41.038c11.336,32.253,16.633,65.836,20.982,99.592
		c6.516,50.573,12.925,101.178,25.696,150.669c11.379,44.1,34.404,79.931,74.933,102.827c14.651,8.277,30.535,13.201,47.083,16.042
		c4.579,0.785,9.333,0.979,13.219,4.041c0.899,0.891,1.017,1.879,0.363,2.959c-990.667,0-1981.333,0-2972,0c0-354,0-708,0-1062
		c6.315,1.258,5.407,6.932,6.207,11.055c1.654,8.521,3.293,17.026,6.148,25.226c13.221,37.974,40.867,58.979,79.448,66.442
		c23.913,4.625,48.195,6.756,72.537,6.395c42.323-0.627,84.543,3.406,126.875,2.196c18.832-0.539,37.158-3.445,54.877-9.693
		c22.727-8.014,39.567-22.885,50.312-44.55c1.776-3.581,3.217-7.348,5.418-10.696c2.772-4.217,5.686-4.122,8.463,0.083
		c0.737,1.115,1.289,2.332,1.881,3.526c17.249,34.809,46.899,48.857,84.129,51.372c37.288,2.518,74.59,2.083,111.885,1.744
		c36.401-0.331,72.463-4.223,107.711-13.978c15.235-4.216,29.522-10.482,42.503-19.515c26.722-18.595,36.78-46.325,28.604-77.927
		c-7.367-28.474-23.687-52.026-41.504-74.581c-7.629-9.657-12.565-19.909-15.755-31.797
		c-19.378-72.217-34.932-145.203-43.436-219.508c-6.488-56.685-8.705-113.571-0.976-170.396
		c4.631-34.043,16.899-65.076,38.299-92.163c28.686-36.309,15.936-79.887-19.101-100.3c-14.318-8.342-29.499-14.079-45.592-17.258
		c-54.835-10.833-109.672-13.34-164.376,1.064c-19.229,5.063-37.079,12.897-52.747,25.404c-24.424,19.496-34.021,56.59-21.782,85.17
		c4.728,11.04,12.306,19.857,22.411,26.218c13.353,8.405,20.485,20.642,23.16,35.783c2.044,11.574,1.818,23.307,0.553,34.879
		c-1.292,11.827-11.067,21.218-25.13,21.772c-29.922,1.178-59.969,2.766-89.819-1.098c-15.168-1.964-24.095-11.557-27.664-26.349
		c-5.254-21.782,0.553-40.757,13.474-58.28c7.517-10.194,17.059-18.671,23.884-29.487c22.546-35.731,14.715-73.255-20.434-96.442
		c-21.163-13.96-45.23-19.535-69.732-22.869c-42.418-5.772-84.935-7.163-127.243,1.485c-22.063,4.51-43.02,11.882-61.822,24.62
		C54.856,64.066,42.873,98.33,53.149,131.51c3.735,12.061,11.002,21.94,21.878,27.527c23.888,12.272,31.795,32.451,34.262,57.71
		c3.698,37.863-0.045,75.068-5.022,112.439c-5.626,42.247-8.78,84.778-13.464,127.14c-5.717,51.705-12.805,103.141-25.546,153.7
		c-6.522,25.883-17.945,48.575-37.939,66.622c-8.057,7.272-13.681,16.247-17.951,26.188C7.896,706.261,7.318,710.884,2,711z"/>
	<path fill-rule="evenodd" clip-rule="evenodd" fill="#957DA9" d="M2,711c2.523-1.507,3.118-4.153,3.99-6.662
		c3.78-10.878,9.863-20.317,17.895-28.538c3.726-3.813,7.26-7.826,11.142-11.471c15.556-14.607,21.584-33.992,26.926-53.656
		c8.376-30.836,13.862-62.235,18.362-93.857c4.965-34.89,8.745-69.888,12.084-104.964c3.464-36.386,6.668-72.871,12.301-108.951
		c3.797-24.315,2.952-48.456,2.793-72.669c-0.093-14.207-2.159-28.47-6.814-42.186c-2.238-6.596-5.56-11.906-11.59-15.633
		c-5.372-3.321-10.278-7.395-15.655-10.706c-14.922-9.19-23.014-22.579-25.496-39.745c-6.192-42.811,15.496-70.878,45.043-86.6
		c20.208-10.753,41.819-17.078,64.38-20.349c21.119-3.062,42.362-4.705,63.686-3.626c29.222,1.479,58.448,3.161,86.781,11.552
		c13.813,4.091,26.839,9.678,38.928,17.66c32.498,21.458,41.374,63.775,19.984,96.681c-6.961,10.709-15.827,19.718-23.827,29.494
		c-14.163,17.308-19.61,36.608-14.734,58.688c2.939,13.311,11.592,21.563,24.903,23.74c21.534,3.521,43.213,1.608,64.827,2.05
		c7.324,0.149,14.682,0.059,21.985-0.465c16.483-1.182,26.741-9.421,26.454-27.21c-0.199-12.316,0.189-24.59-3.954-36.533
		c-3.182-9.171-8.1-16.849-16.469-21.85c-45.116-26.961-39.355-90.123-3.395-118.601c20.737-16.422,44.798-24.432,70.128-29.567
		c24.899-5.048,50.138-6.806,75.464-5.6c28.888,1.376,57.779,3.209,85.779,11.53c19.399,5.765,37.227,14.091,51.861,28.642
		c17.826,17.725,25.325,51.721,11.222,75.774c-4.566,7.788-9.594,15.204-14.875,22.463c-17.646,24.25-27.092,51.704-31.979,80.963
		c-6.852,41.029-5.973,82.451-3.483,123.595c4.203,69.463,16.546,137.833,32.498,205.561c5.718,24.279,11.953,48.41,18.31,72.521
		c1.147,4.349,2.92,7.963,5.711,11.393c13.05,16.031,25.361,32.62,35.175,50.861c8.56,15.912,15.25,32.43,16.006,50.949
		c1.122,27.44-10.325,48.155-32.514,63.536c-17.84,12.366-37.991,19.018-58.899,23.67c-20.148,4.483-40.585,6.755-61.174,8.415
		c-38.616,3.113-77.246,1.391-115.867,1.339c-13.61-0.018-27.388-0.525-40.795-2.66c-35.524-5.657-62.713-23.096-76.219-57.924
		c-3.675,0.171-3.216,3.31-3.968,5.137c-13.872,33.734-39.787,52.372-74.698,59.587c-14.351,2.966-28.877,4.695-43.598,4.421
		c-45.954-0.854-91.928-1.096-137.855-2.691c-20.522-0.712-41.114-2.524-61.307-7.257c-47.485-11.131-73.941-43.919-81.436-90.127
		C5.223,746.235,4.76,741.306,2,737C2,728.333,2,719.667,2,711z"/>
	<path fill-rule="evenodd" clip-rule="evenodd" fill="#E9E3EB" d="M1169.944,2.782c0.03-0.594,0.048-1.188,0.056-1.782
		c10,0,20,0,30,0c0.016,0.583,0.037,1.166,0.063,1.748C1190.029,7.966,1179.99,7.923,1169.944,2.782z"/>
	<path fill-rule="evenodd" clip-rule="evenodd" fill="#B8A6C2" d="M3010,1799c-9.333,0-18.667,0-28,0
		c-0.617-1.249-0.352-2.268,0.792-3.063c8.804-2.76,17.61-2.765,26.423-0.016C3010.356,1796.722,3010.617,1797.75,3010,1799z"/>
	<path fill-rule="evenodd" clip-rule="evenodd" fill="#E2DAE5" d="M4022,107l-0.838,0.109l-0.845-0.002
		c-4.819-6.737-4.817-13.475-0.001-20.212c0.565-0.038,1.127-0.002,1.684,0.106C4022,93.667,4022,100.333,4022,107z"/>
	<path fill-rule="evenodd" clip-rule="evenodd" fill="#DBD1DF" d="M2981.908,1797.106c0.07,0.629,0.102,1.261,0.092,1.894
		c-2.667,0-5.333,0-8,0c-0.009-0.635-0.024-1.27-0.049-1.903C2976.606,1794.718,2979.259,1794.715,2981.908,1797.106z"/>
	<path fill-rule="evenodd" clip-rule="evenodd" fill="#DCD2E0" d="M3010,1799c-0.016-0.636,0.014-1.27,0.086-1.901
		c2.654-2.383,5.309-2.384,7.963,0.001c-0.023,0.633-0.039,1.267-0.049,1.9C3015.333,1799,3012.667,1799,3010,1799z"/>
	<path fill-rule="evenodd" clip-rule="evenodd" fill="#957DA9" d="M3018.049,1797.1c-2.654-0.001-5.31-0.002-7.963-0.002
		c-9.393,0.003-18.784,0.005-28.177,0.008c-2.653-0.003-5.306-0.006-7.958-0.01c-16.461-2.517-32.732-5.654-48.244-12.102
		c-29.345-12.199-51.503-32.483-68.297-59.184c-14.262-22.675-21.387-47.936-27.041-73.671
		c-7.92-36.052-13.308-72.573-17.952-109.155c-3.812-30.023-7.414-60.045-14.523-89.494c-5.087-21.068-11.402-41.739-22.812-60.469
		c-2.098-3.442-4.482-6.611-7.223-9.537c-6.865-7.332-13.12-8.715-21.341-4.729c-7.329,3.554-9.619,8.264-8.187,18.322
		c2.436,17.104,4.987,34.194,7.752,51.247c4.573,28.216,10.053,56.241,16.524,84.107c5.428,23.369,16.085,43.482,32.556,60.753
		c3.434,3.602,6.408,7.663,9.404,11.657c10.551,14.067,16.072,29.819,15.158,47.514c-1.219,23.614-2.949,47.167-11.597,69.552
		c-4.109,10.639-9.428,20.525-17.103,29.113c-13.468,15.071-31.383,20.688-50.375,23.895c-24.311,4.104-48.867,5.287-73.466,6.683
		c-30.653,1.739-61.286,1.739-91.899,1.082c-32.577-0.698-65.121-2.902-96.838-11.544c-11.646-3.174-22.844-7.343-32.955-13.978
		c-14.743-9.676-24.682-23.235-30.354-39.783c-7.759-22.633-10.906-45.838-7.495-69.73c1.909-13.373,8.546-24.36,17.021-34.431
		c7.074-8.405,14.228-16.745,21.465-25.009c4.038-4.611,6.505-9.922,8.499-15.67c8.215-23.676,12.479-48.295,16.982-72.788
		c8.954-48.694,16.223-97.668,22.68-146.766c4.638-35.265,8.592-70.588,12.238-105.97c2.927-28.392,1.396-56.43-1.931-84.59
		c-1.37-11.602-3.604-22.948-6.2-34.308c-2.968-12.987-8.617-23.594-21.195-29.637c-16.71-8.027-25.869-22.208-28.567-39.8
		c-5.044-32.89,4.333-60.612,32.419-80.471c20.523-14.513,43.697-22.484,68.113-27.11c24.604-4.661,49.548-5.544,74.512-5.625
		c34.331-0.112,68.665,0.243,102.991-0.126c22.003-0.237,44.021,0.169,65.87,2.013c54.889,4.634,105.621,21.395,148.744,56.819
		c25.815,21.208,42.901,48.637,48.315,81.723c9.614,58.749-3.681,111.571-43.784,156.854c-12.488,14.101-27.002,25.62-41.902,36.835
		c-5.975,4.497-6.126,4.589-2.045,10.89c6.312,9.744,15.053,16.859,25.318,22.069c11.288,5.728,22.38,12.032,34.136,16.596
		c13.494,5.238,24.04,13.823,33.733,24.105c21.648,22.963,40.173,48.034,52.372,77.332c10.396,24.967,17.424,50.98,22.565,77.48
		c7.868,40.563,17.761,80.476,33.496,118.87c9.477,23.123,22.188,43.785,39.367,61.933c8.964,9.471,15.993,20.307,19.301,33.334
		c3.412,13.438-1.107,24.097-10.164,33.594c-4.896,5.133-11.42,8.078-16.766,12.539c-13.199,11.016-28.181,15.886-45.373,17.187
		c-16.49,1.247-32.753,5.415-49.136,8.184C3033.188,1794.976,3025.608,1795.976,3018.049,1797.1z"/>
	<path fill-rule="evenodd" clip-rule="evenodd" fill="#957DA9" d="M4020.316,86.894c0,6.737-0.001,13.475,0,20.212
		c-0.711,15.535-8.455,27.728-18.492,38.814c-1.339,1.479-2.736,2.951-4.305,4.172c-17.84,13.89-24.026,33.502-27.547,54.7
		c-8.827,53.162-8.688,106.76-7.804,160.347c0.951,57.622,1.617,115.244,2.335,172.868c0.699,56.082-15.588,106.792-44.473,154.165
		c-15.873,26.033-34.929,49.597-56.211,71.196c-31.928,32.402-68.231,58.533-112.425,71.916
		c-25.035,7.581-50.61,10.799-76.822,8.331c-7.942-0.748-15.998-0.183-23.979-0.617c-49.433-2.69-97.903-10.111-143.714-30.076
		c-42.609-18.57-75.878-47.529-98.233-88.616c-18.03-33.138-28.129-68.822-34.693-105.732
		c-8.913-50.123-8.705-100.694-8.061-151.314c0.521-40.956,3.449-81.817,4.852-122.741c0.867-25.317,1.701-50.623,0.824-75.889
		c-0.807-23.221-2.957-46.416-9.272-69.038c-3.314-11.872-8.705-22.254-17.399-30.933c-4.009-4.002-7.912-8.13-12.148-11.881
		c-22.26-19.708-26.744-44.096-19.117-71.725c6.497-23.538,22.965-38.455,43.47-49.677c20.1-11.001,41.923-16.845,64.401-20.329
		c21.092-3.269,42.362-4.78,63.684-3.653c34.896,1.846,69.783,4.088,102.781,17.348c15.373,6.177,29.102,14.608,39.363,28.003
		c21.563,28.145,19.571,66.525-4.875,92.35c-0.916,0.967-1.809,1.989-2.861,2.79c-21.314,16.215-28.124,39.493-31.484,64.475
		c-5.963,44.339-7.056,88.938-5.673,133.536c0.75,24.196,3.206,48.388,9.418,72.042c6.871,26.165,24.376,41.37,49.295,48.855
		c25.269,7.591,51.12,7.748,77.153,4.785c7.982-0.909,15.736-2.496,23.438-4.658c23.283-6.537,37.467-22.06,43.982-44.871
		c5.039-17.64,8.346-35.636,8.359-54.058c0.021-30.327,0.672-60.689-0.557-90.971c-0.995-24.523-2.123-49.185-7.494-73.335
		c-1.886-8.478-4.428-16.752-8.135-24.586c-3.737-7.896-8.521-15.029-16.242-19.793c-30.471-18.8-35.804-52.957-25.796-83.666
		c8.871-27.219,29.81-42.582,55.285-52.499c23.136-9.006,47.385-12.883,72.106-14.313c12.957-0.75,25.885-2.14,38.884-1.591
		c26.834,1.133,52.981,5.394,76.99,18.288c18.54,9.957,32.688,23.879,39.071,44.624
		C4019.489,78.354,4019.953,82.589,4020.316,86.894z"/>
	<path fill-rule="evenodd" clip-rule="evenodd" fill="#957DA9" d="M1169.944,2.782c10.04-0.011,20.079-0.021,30.118-0.033
		c28.657,3.158,56.3,9.706,81.696,24.017c19.818,11.167,35.924,26.105,48.061,45.451c13.648,21.753,25.595,44.418,36.497,67.614
		c9.379,19.957,14.41,41.417,19.608,62.724c13.228,54.222,25.416,108.701,40.178,162.542
		c17.855,65.125,37.54,129.663,62.544,192.462c4.183,10.505,8.903,20.795,13.368,31.187c3.992,9.292,9.558,17.496,16.818,24.554
		c9.313,9.052,18.581,18.149,27.892,27.204c14.568,14.166,20.805,32.063,23.301,51.68c1.303,10.243,1.845,20.522,1.906,30.836
		c1.45,4.953,1.48,9.731-1.74,14.108c-6.387,35.092-27.049,59.404-57.868,75.683c-25.523,13.482-52.937,21.293-81.296,26.367
		c-36.966,6.613-74.233,6.94-111.487,5.348c-23.54-1.006-47.127-3.531-69.596-11.697c-36.885-13.405-59.616-38.806-66.194-78.003
		c-3.573-21.288-2.122-42.431,1.18-63.565c0.41-2.626,0.684-5.283,1.251-7.875c1.626-7.424,2.635-14.886,8.155-21.056
		c17.409-19.459,25.85-43.283,31.255-68.222c4.303-19.855,5.606-40.126,6.349-60.432c0.568-15.538-6.14-26.775-18.77-35.137
		c-13.28-8.792-28.126-13.757-43.45-17.014c-15.957-3.391-32.056-4.819-48.375-0.814c-6.541,1.604-11.673,4.322-15.999,9.225
		c-10.097,11.444-14.793,25.377-16.828,39.96c-4.532,32.482-2.042,64.316,10.971,94.926c5.864,13.795,16.209,24.271,25.147,35.805
		c6.52,8.412,13.629,16.325,19.977,24.915c14.13,19.121,16.002,40.509,12.554,62.857c-7.188,46.571-36.386,73.255-79.815,86.205
		c-18.532,5.526-37.782,7.214-57.075,8.628c-25.619,1.877-51.242,1.782-76.883,1.864c-22.73,0.072-45.118-2.578-67.179-8.062
		c-11.718-2.913-22.783-7.442-33.198-13.5c-26.731-15.549-38.946-39.461-38.405-69.748c0.402-22.481,5.102-44.18,15.857-64.329
		c9.392-17.596,21.509-32.942,37.292-45.047c21.061-16.153,36.236-36.987,49.378-59.591c19.688-33.864,33.446-70.252,45.852-107.245
		c17.91-53.401,31.299-107.946,40.494-163.458c6.422-38.768,10.307-77.877,8.406-117.272c-1.024-21.228-5.931-41.5-18.628-59.158
		c-5.067-7.046-11.056-13.309-17.05-19.571c-7.746-8.093-11.94-17.536-10.347-29.024c1.186-8.549,5.108-15.723,10.796-22.056
		c13.564-15.103,31.292-23.421,49.785-30.423c34.358-13.008,70.123-20.667,106.08-27.516
		C1138.205,6.11,1154.046,4.195,1169.944,2.782z"/>
	<path fill-rule="evenodd" clip-rule="evenodd" fill="#957DA9" d="M2936.749,848.812c-34.46,0.075-61.753-1.011-88.858-4.134
		c-22.78-2.625-45.467-6.395-66.381-16.855c-19.35-9.678-32.929-24.713-41.054-44.544c-9.256-22.592-12.091-46.366-10.328-70.525
		c1.144-15.662,10.362-27.833,20.466-39.113c5.774-6.446,11.752-12.703,17.465-19.218c4.521-5.154,7.624-10.772,9.705-17.212
		c7.386-22.85,11.702-46.413,16.028-69.939c8.534-46.407,15.18-93.124,21.854-139.827c1.691-11.836,2.663-23.775,4.05-35.657
		c0.405-3.469-0.305-6.614-2.028-9.579c-3.012-5.181-5.89-10.447-9.092-15.506c-11.438-18.067-20.989-37.041-28.704-57.004
		c-3.592-9.296-8.166-18.217-12.394-27.262c-9.164-19.609-18.356-39.205-27.606-58.772c-4.84-10.237-13.146-17.563-21.663-24.496
		c-16.513-13.442-32.715-27.342-51.117-38.257c-11.938-7.081-18.569-17.793-21.671-30.987c-5.861-24.929-2.706-48.09,13.065-69.015
		c11.229-14.897,26.44-24.22,43.133-31.332c23.456-9.994,48.12-14.574,73.505-17.051c25.061-2.445,49.937-1.058,74.768,0.857
		c29.559,2.279,58.84,6.693,85.53,21.244c17.896,9.757,30.048,23.994,35.286,43.761c4.356,16.445,4.51,32.839-1.613,49.011
		c-2.283,6.031-5.677,11.274-10.234,15.79c-6.391,6.333-12.996,12.461-19.166,19.002c-9.495,10.069-13.145,21.879-10.615,35.781
		c2.278,12.517,5.277,24.689,11.213,36.035c3.004,5.741,6.995,10.657,12.354,14.16c5.573,3.643,13.193,5.781,19.465-2.33
		c6.936-8.97,13.871-17.903,17.148-29.036c4.714-16.014,11.829-31.089,18.234-46.443c3.119-7.477,3.171-7.652-2.877-12.195
		c-12.963-9.738-18.399-23.683-20.168-38.816c-2.902-24.837,2.328-47.872,19.921-66.693c12.288-13.146,27.667-21.651,44.573-27.584
		c18.97-6.657,38.65-10.108,58.525-11.691c17.554-1.398,35.185-3.254,52.856-2.041c19.558,1.342,39.181,2.299,58.22,7.682
		c16.199,4.58,31.396,10.978,43.76,22.917c13.134,12.685,19.939,28.037,19.986,46.323c0.021,8.316,0.318,16.639-2.147,24.774
		c-2.153,7.107-5.347,13.524-10.236,19.206c-15.778,18.335-35.282,31.253-57.521,40.368c-8.003,3.281-15.882,6.87-23.788,10.383
		c-9.954,4.423-18.32,10.864-24.465,19.935c-15.162,22.38-33.55,42.19-50.294,63.308c-16.958,21.388-34.132,42.571-47.107,66.836
		c-13.722,25.658-17.403,52.379-13.331,81.129c6.62,46.727,13.898,93.325,22.707,139.681c3.477,18.292,8.147,36.32,12.633,54.391
		c4.361,17.577,12.891,32.599,25.239,45.769c5.671,6.048,10.808,12.691,15.516,19.526c8.291,12.04,12.821,25.244,12.664,40.241
		c-0.203,19.387-1.824,38.548-6.328,57.38c-3.353,14.02-9.083,27.034-17.538,38.893c-9.977,13.993-23.657,22.341-39.809,26.708
		c-17.688,4.784-35.872,6.824-54.124,8.296C2992.82,847.629,2961.195,847.767,2936.749,848.812z"/>
	<path fill-rule="evenodd" clip-rule="evenodd" fill="#957DA9" d="M598.073,937.057c30.426,1.292,58.852,6.385,87.142,12.532
		c26.962,5.859,53.903,11.597,81.736,12.002c22.706,0.331,38.893,11.773,49.297,31.811c9.36,18.027,12.813,37.581,15.944,57.369
		c2.302,14.549,2.1,29.205,3.01,43.778c1.374,21.973,0.07,44.019-8.932,64.668c-10.396,23.849-28.448,36.644-54.843,38.093
		c-25.613,1.406-44.678-10.428-61.27-28.104c-13.334-14.205-23.094-30.884-32.717-47.645c-4.987-8.687-10.876-16.75-16.971-24.669
		c-13.41-17.426-30.289-25.562-52.448-19.499c-2.566,0.702-5.196,1.179-7.749,1.922c-19.507,5.681-29.365,20.995-26.389,41.155
		c1.078,7.303,5.74,12.703,10.617,17.695c13.158,13.469,28.833,23.598,45.181,32.65c30.873,17.097,62.511,32.805,92.609,51.309
		c26.991,16.594,53.506,33.855,76,56.436c39.745,39.9,64.204,87.785,73.676,143.267c5.524,32.358,5.415,64.863,2.375,97.487
		c-2.984,32.036-10.131,63.014-22.395,92.729c-18.236,44.186-45.54,81.74-82.08,112.771
		c-36.787,31.242-79.128,50.049-126.428,57.703c-32.006,5.18-64.204,4.486-96.42,0.768c-36.05-4.161-70.536-13.362-102.823-30.101
		c-68.402-35.462-112.417-90.209-130.08-165.523c-6.566-27.999-9.321-56.476-7.869-85.189c0.726-14.343,3.99-28.234,12.152-40.636
		c8.475-12.877,20.167-20.858,34.794-25.137c25.623-7.495,49.545-4.231,71.084,11.74c22.539,16.714,47.666,19.164,74.096,14.304
		c17.231-3.168,27.621-16.821,31.814-35.62c4.577-20.52-3.768-35.859-16.87-49.531c-17.287-18.039-35.326-35.355-52.992-53.031
		c-13.428-13.436-27.045-26.695-40.103-40.482c-20.349-21.487-36.634-45.796-47.057-73.581c-8.615-22.967-11.92-46.64-9.833-71.454
		c2.114-25.133,6.775-49.302,16.663-72.525c14.083-33.075,36.45-59.483,65.005-80.74c33.533-24.964,71.332-39.553,112.76-45.097
		C571.634,938.824,585.548,938.068,598.073,937.057z"/>
	<path fill-rule="evenodd" clip-rule="evenodd" fill="#957DA9" d="M3132.053,1514.098c-0.627-13.326,1.238-28.731,7.714-43.353
		c7.604-17.173,20.481-28.408,38.436-33.786c27.015-8.092,51.685-3.883,74.609,12.985c22.515,16.567,48.208,18.077,74.379,11.971
		c13.409-3.129,22.08-12.61,26.854-25.93c8.178-22.816,1.879-41.781-14.387-58.279c-16.608-16.847-33.556-33.359-50.212-50.16
		c-18.288-18.446-37.694-35.839-54.041-56.133c-22.031-27.354-38.489-57.419-44.57-92.525c-2.985-17.236-2.252-34.528-0.456-51.678
		c2.329-22.242,8.019-43.716,17.359-64.239c14.588-32.051,36.797-57.623,64.963-78.265c33.466-24.525,70.998-38.757,112.083-44.102
		c16.527-2.15,33.102-4.228,49.71-3.09c19.882,1.362,39.64,4.243,59.177,8.378c25.351,5.366,50.622,11.158,76.336,14.607
		c10.563,1.417,21.256,0.456,31.869,2.093c14.363,2.215,25.535,9.213,34.054,20.584c11.481,15.327,16.51,33.34,19.862,51.75
		c4.721,25.919,6.433,52.188,5.693,78.484c-0.392,13.892-2.45,27.701-6.954,41.141c-14.99,44.729-64.137,51.725-94.118,34.158
		c-14.091-8.257-24.925-19.877-34.818-32.514c-10.505-13.419-17.936-28.819-27.277-42.997c-5.878-8.92-12.092-17.513-19.891-24.926
		c-9.672-9.192-20.206-14.244-34.252-11.866c-9.219,1.561-18.438,2.333-26.865,6.765c-18.17,9.553-23.348,33.035-11.194,49.462
		c6.265,8.466,14.405,14.713,22.697,20.848c14.499,10.729,30.188,19.524,46.169,27.792c35.515,18.375,70.338,37.923,103.639,60.118
		c42.482,28.313,76.013,64.565,97.855,110.978c12.698,26.982,20.261,55.448,23.867,85.122c2.912,23.958,2.961,47.979,1.237,71.821
		c-4.563,63.12-23.794,121.34-63.222,171.631c-39.738,50.688-90.317,85.098-153.969,98.74c-13.65,2.926-27.501,4.419-41.432,5.714
		c-18.685,1.737-37.287,0.822-55.787-0.646c-64.737-5.137-123.25-25.919-172.59-69.756c-41.775-37.116-65.896-83.739-76.501-137.945
		C3134.178,1557.111,3131.964,1536.957,3132.053,1514.098z"/>
	<path fill-rule="evenodd" clip-rule="evenodd" fill="#957DA9" d="M1043.282,1119.149c-5.303,5.884-6.593,12.192-8.848,17.914
		c-4.156,10.546-8.478,20.992-13.799,31.009c-15.779,29.697-41.21,44.392-74.063,46.835c-10.894,0.811-21.855,0.887-32.812-1.439
		c-21.421-4.549-39.351-20.809-43.54-46.579c-6.212-38.215-6.132-76.288,5.816-113.537c10.223-31.871,23.347-62.383,45.713-88.015
		c13.286-15.226,29.855-24.66,50.106-25.741c11.23-0.6,22.481,1.877,33.526,4.376c3.242,0.733,6.464,1.57,9.667,2.461
		c18.069,5.021,36.37,7.193,55.219,6.924c44.989-0.643,89.992-0.265,134.987-0.65c19.634-0.168,39.259-1.246,58.891-1.791
		c3.813-0.105,7.308-1.106,10.405-3.084c26.007-16.609,56.363-4.876,74.401,11.214c11.319,10.097,20.131,22.19,27.59,35.268
		c15.828,27.75,26.677,57.349,30.958,89.054c3.961,29.339,2.938,58.45-7.452,86.613c-15.397,41.738-54.354,51.558-85.638,42.538
		c-20.724-5.976-33.791-21.879-43.748-40.221c-5.876-10.825-10.915-22.104-16.588-33.044c-3.657-7.052-7.594-14.005-14.579-19.279
		c-2.014,2.153-1.188,4.478-0.97,6.545c1.75,16.521,3.576,33.033,5.384,49.548c2.531,23.123,5.068,46.245,7.598,69.368
		c2.205,20.156,4.2,40.339,6.655,60.464c2.736,22.428,5.76,44.822,8.887,67.2c4.784,34.229,10.79,68.263,16.997,102.258
		c4.957,27.146,10.229,54.23,18.048,80.743c2.578,8.742,6.498,16.534,12.913,23.316c7.306,7.725,13.815,16.212,20.545,24.47
		c13.363,16.397,18.03,35.424,15.99,56.124c-1.4,14.206-2.145,28.525-5.588,42.478c-2.559,10.37-5.823,20.467-10.66,30.038
		c-10.946,21.658-28.548,34.759-51.962,40.064c-21.782,4.935-43.98,6.995-66.23,8.299c-37.93,2.222-75.917,3.039-113.876,1.745
		c-30.239-1.031-60.408-3.547-89.816-11.64c-25.406-6.992-46.428-19.818-59.654-43.452c-7.25-12.955-11.271-27.015-13.515-41.54
		c-1.316-8.518-1.895-17.157-2.433-25.805c-1.232-19.796,6.764-35.539,19.533-49.611c4.474-4.932,8.545-10.29,13.418-14.784
		c10.828-9.986,15.588-22.958,19.211-36.618c8.703-32.809,14.936-66.118,20.232-99.619c5.085-32.16,10.542-64.265,15.234-96.481
		c3.4-23.343,5.633-46.854,8.725-70.245c3.4-25.726,4.616-51.649,7.49-77.418c0.037-0.331,0.055-0.665,0.057-0.998
		c0.176-30.645,3.016-61.218,2.412-91.881C1044.106,1121.907,1043.819,1121.279,1043.282,1119.149z"/>
	<path fill-rule="evenodd" clip-rule="evenodd" fill="#957DA9" d="M1573.799,722.947c4.783-28.52,16.196-54.77,27.814-80.934
		c8.511-19.166,16.781-38.41,23.968-58.132c7.13-19.566,9.832-39.958,12.397-60.402c2.605-20.764,5.003-41.555,7.435-62.34
		c0.965-8.255,1.223-16.568,2.078-24.85c1.537-14.874,1.597-29.894,2.685-44.822c2.883-39.588,2.567-79.233,1.494-118.839
		c-0.675-24.894-3.05-49.781-9.668-73.993c-1.314-4.806-2.79-9.604-4.663-14.213c-2.927-7.201-6.992-13.575-14.273-17.334
		c-2.646-1.366-4.882-3.515-7.508-4.928c-19.553-10.52-26.16-28.429-27.383-48.972c-2.011-33.771,13.607-58.185,41.889-75.03
		c21.451-12.775,45.14-19.382,69.659-23.153c21.1-3.246,42.365-4.789,63.671-3.593c34.17,1.917,68.546,3.063,101.079,15.586
		c18.01,6.933,34.375,16.382,44.583,33.609c12.662,21.368,14.019,43.972,6.105,67.244c-1.721,5.063-4.844,9.522-8.6,13.36
		c-5.358,5.476-10.548,11.214-16.494,15.989c-6.536,5.248-10.761,11.81-13.454,19.415c-6.46,18.24-10.452,37.046-12.753,56.276
		c-6.716,56.116-4.083,112.454-3.131,168.656c0.736,43.39,9.715,85.778,25.254,126.531c3.098,8.125,7.179,15.74,12.58,22.608
		c5.478,6.966,12.277,9.301,21.169,7.612c13.358-2.538,25.216-7.851,36.293-15.687c13.31-9.415,26.577-18.906,40.483-27.484
		c12.004-7.405,24.813-12.838,38.1-17.222c20.505-6.764,39.49-3.628,56.384,9.947c7.515,6.039,15.103,12.024,21.863,18.981
		c5.501,5.661,9.046,12.281,11.104,19.796c4.252,15.521,5.09,31.516,5.695,47.422c1.04,27.295,0.523,54.634-1.955,81.839
		c-3.232,35.469-7.785,70.757-21.716,104.029c-6.216,14.847-13.875,28.756-25.662,40.085
		c-14.135,13.585-31.244,20.073-50.493,20.845c-14.305,0.574-28.659-0.161-42.971,0.318c-24.585,0.823-49.093,2.719-73.596,5.115
		c-16.527,1.616-33.286,1.122-49.941,1.107c-25.988-0.022-52.018,0.384-77.954-0.918c-26.298-1.321-52.614-0.663-78.872-1.965
		c-20.543-1.019-41.082-2.473-60.936-9.157c-39.66-13.353-63.545-39.845-69.933-81.545c-0.553-3.612-1.203-7.208-1.808-10.813
		C1572.389,736.31,1570.546,729.631,1573.799,722.947z"/>
	<path fill-rule="evenodd" clip-rule="evenodd" fill="#957DA9" d="M2567.785,840.979c-24.287,0.272-48.533,1.215-72.704,3.882
		c-31.197,3.442-62.53,2.52-93.83,2.414c-12.996-0.043-26.009,0.104-38.983-0.497c-29.946-1.388-59.928-1.271-89.868-2.325
		c-22.88-0.805-45.745-2.655-67.544-11.281c-40.896-16.183-61.307-46.498-65.244-89.749c-2.267-24.89,5.221-47.319,14.132-69.553
		c10.151-25.326,21.229-50.279,31.684-75.486c8.84-21.313,14.127-43.457,16.94-66.45c3.188-26.053,6.084-52.14,9.155-78.206
		c1.011-8.574,1.594-17.26,1.972-25.849c0.776-17.624,2.094-35.221,2.971-52.833c1.543-30.97,2.196-61.937,1.131-92.877
		c-0.938-27.214-2.719-54.473-9.523-81.062c-0.824-3.22-1.762-6.415-2.765-9.584c-3.613-11.409-8.814-21.591-20.579-26.787
		c-1.803-0.796-3.304-2.247-5.037-3.234c-15.471-8.814-23.026-22.942-25.293-39.832c-4.479-33.368,6.786-60.272,34.869-79.456
		c19.28-13.17,41.02-20.492,63.664-25.08c25.537-5.173,51.455-7.004,77.448-5.705c29.542,1.477,59.124,3.224,87.78,11.615
		c18.471,5.408,35.607,13.287,48.855,27.787c14.833,16.235,19.208,35.607,17.9,57.211c-1.188,19.644-10.815,33.853-25.601,45.371
		c-9.858,7.68-15.906,17.604-19.505,29.435c-6.315,20.768-10.103,41.956-11.958,63.563c-3.972,46.239-0.943,92.564-1.976,138.832
		c-0.953,42.757,7.363,84.003,18.981,124.751c3.925,13.767,9.323,27.017,17.648,38.939c5.839,8.361,13.073,11.076,23.211,9.362
		c15.663-2.647,28.649-10.302,41.138-19.361c12.941-9.387,26.216-18.262,39.869-26.603c11.211-6.848,23.368-11.283,35.778-15.083
		c22.083-6.762,41.317-0.926,58.321,13.945c4.762,4.166,9.646,8.195,14.364,12.408c7.405,6.611,12.536,14.657,14.627,24.441
		c2.226,10.411,3.921,20.894,4.29,31.576c0.554,15.96,2.282,31.873,1.475,47.886c-2.162,42.836-3.648,85.742-15.535,127.396
		c-5.24,18.362-12.273,35.938-23.002,51.809c-15.097,22.335-36.602,33.218-63.266,34.217
		C2585.125,841.252,2576.449,840.979,2567.785,840.979z"/>
	<path fill-rule="evenodd" clip-rule="evenodd" fill="#957DA9" d="M2375.969,1306.074c-0.928,26.583-11.81,50.233-35.091,67.54
		c-50.771,37.742-101.538,75.488-152.513,112.952c-5.272,3.875-7.002,7.893-6.788,14.167c1.112,32.62,1.215,65.287,2.973,97.867
		c1.006,18.644,0.738,37.293,1.843,55.896c0.73,12.3,1.335,24.584,1.635,36.901c0.978,40.114-24.564,75.42-64.267,85.866
		c-25.194,6.63-48.943,2.76-70.407-12.022c-23.307-16.052-46.195-32.712-69.253-49.124c-30.112-21.433-60.297-42.765-90.22-64.459
		c-4.154-3.013-7.358-1.841-11.076-0.485c-31.27,11.398-62.531,22.819-93.792,34.241c-28.759,10.508-57.297,21.677-86.319,31.396
		c-53.441,17.898-102.442-13.833-113.53-61.389c-3.72-15.955-2.708-31.636,2.21-47.171c13.355-42.195,26.718-84.388,40.012-126.603
		c5.697-18.089,10.958-36.322,17.003-54.292c1.876-5.578,0.689-9.357-2.682-13.618c-16.937-21.413-33.708-42.957-50.494-64.489
		c-23.132-29.671-46.729-58.995-69.182-89.173c-19.559-26.288-21.696-55.608-8.549-85.12c13.2-29.628,36.806-46.604,69.362-50.128
		c28.559-3.091,57.25-1.287,85.878-1.657c37.327-0.481,74.663-0.567,111.992-0.313c6.991,0.047,10.78-2.557,14.457-8.043
		c34.671-51.738,69.687-103.245,104.347-154.99c11.532-17.216,26.369-29.865,46.115-36.421
		c44.652-14.827,92.868,8.488,108.412,53.043c13.156,37.713,25.399,75.743,38.129,113.605c7.743,23.03,15.854,45.939,23.323,69.057
		c1.896,5.865,5.114,8.411,10.831,10.025c61.134,17.263,122.285,34.479,183.246,52.342
		C2352.551,1232.896,2374.755,1265.959,2375.969,1306.074z"/>
	<path fill-rule="evenodd" clip-rule="evenodd" fill="#EAE4EC" d="M1573.799,722.947c0.008,6.681,0.016,13.362,0.022,20.043
		c-2.364-1.242-1.221-4.654-3.632-5.864c-0.183-4.796-0.589-9.621,1.741-14.108C1572.552,722.991,1573.176,722.967,1573.799,722.947
		z"/>
	<path fill-rule="evenodd" clip-rule="evenodd" fill="#D191B4" d="M334.049,524.635c0,14.999-0.346,30.008,0.088,44.995
		c0.538,18.553,1.339,37.134,4.042,55.521c1.426,9.696,6.434,18.152,11.488,26.38c7.143,11.63,15.587,22.361,24.59,32.565
		c12.678,14.368,15.976,30.714,12.781,49.204c-1.746,10.102-2.272,20.431-5.131,30.337c-3.426,11.875-7.974,23.255-16.279,32.709
		c-11.807,13.442-27.556,19.329-44.485,22.567c-19.981,3.822-40.287,5.6-60.495,3.815c-31.267-2.762-62.598-0.173-93.778-2.129
		c-24.397-1.53-49.016-1.808-73.083-7.514c-17.551-4.161-32.146-12.785-43.252-26.809c-7.101-8.967-10.76-19.825-14.011-30.703
		c-3.359-11.24-2.743-23.026-3.899-34.512c-0.782-7.766,3.792-15.338,9.579-21.289c7.651-7.868,14.303-16.619,22.167-24.331
		c8.975-8.801,13.583-20.271,17.814-31.915c9.102-25.046,15.175-50.866,19.708-77.044c4.291-24.781,8.246-49.629,11.776-74.529
		c2.044-14.418,2.839-29.01,4.416-43.5c1.754-16.12,4.379-32.172,5.418-48.332c0.618-9.616,1.972-19.135,2.685-28.728
		c1.127-15.167,3.535-30.235,5.111-45.375c1.71-16.429,5.95-32.479,5.017-49.338c-1.066-19.274,0.104-38.662-0.444-57.979
		c-0.434-15.317-3.615-30.224-9.29-44.587c-4.578-11.589-12.431-20.23-22.568-27.073c-5.788-3.907-11.436-8.049-17.42-11.629
		c-4.648-2.78-7.177-6.66-8.542-11.711c-6.815-25.215,3.29-48.084,27.098-61.261c16.168-8.948,33.604-14.018,51.651-17.478
		c25.683-4.923,51.683-5.051,77.512-3.571c25.753,1.476,51.572,4.293,76.11,13.462c10.398,3.886,19.66,9.381,27.793,17.143
		c10.617,10.13,15.308,29.311,6.529,44.913c-5.069,9.01-11.262,17.224-18.415,24.688c-13.393,13.976-23.704,29.936-26.963,49.132
		c-3.25,19.147-3.342,38.466,5.786,56.554c9.626,19.074,25.396,29.043,46.395,31.768c27.878,3.616,55.854,1.828,83.769,1.606
		c10.054-0.08,20.417-1.446,29.987-6.134c19.991-9.793,29.392-26.182,30.619-47.742c0.795-13.982-0.444-27.811-3.773-41.514
		c-4.503-18.534-13.517-33.734-29.884-44.172c-5.943-3.791-11.097-8.61-14.548-14.816c-6.059-10.896-4.967-22.607-2.136-33.938
		c3.53-14.131,13.747-23.313,26.031-30.018c16.765-9.151,34.847-14.3,53.699-17.561c24.101-4.167,48.357-4.76,72.541-3.447
		c26.446,1.436,52.893,4.183,78.131,13.392c11.437,4.173,21.656,10.076,29.945,19.163c9.548,10.467,11.729,24.874,5.878,37.76
		c-5.552,12.229-14.352,22.349-21.428,33.583c-15.336,24.347-23.403,51.013-28.604,79.046c-7.343,39.579-6.535,79.491-5.307,119.303
		c0.599,19.413,2.724,38.94,5.006,58.372c2.551,21.715,5.539,43.368,8.841,64.95c3.404,22.245,8.315,44.266,12.799,66.337
		c7.598,37.399,17.401,74.268,27.092,111.16c1.705,6.49,4.787,12.003,9.199,17.363c16.488,20.025,31.982,40.799,41.563,65.291
		c11,28.12,1.325,50.008-22.986,62.984c-16.925,9.034-35.142,13.716-53.888,17.07c-26.251,4.697-52.658,6.437-79.295,6.169
		c-7.558-0.076-15.102,2.488-22.777,1.644c-26.542-2.918-53.203-1.019-79.772-2.154c-13.232-0.565-26.186-3.396-38.325-9.619
		c-17.784-9.117-26.286-23.78-30.27-42.935c-3.795-18.246,2.294-32.104,13.378-45.737c6.507-8.004,14.129-14.919,20.328-23.238
		c8.688-11.658,13.22-23.759,13.02-38.655c-0.246-18.311-0.959-36.614-2.778-54.737c-2.278-22.71-4.148-45.484-7.032-68.159
		c-1.368-10.751-1.82-21.832-2.859-32.692c-1.843-19.273-0.986-38.558-2.051-57.785c-0.598-10.791-1.62-21.779-5.784-32.174
		c-4.08-10.186-10.482-17.84-20.934-21.381c-26.474-8.971-52.189-5.878-75.75,8.254c-14.134,8.479-22.4,22.628-25.082,39.227
		c-2.432,15.057-4.069,30.226-4.08,45.519c-0.011,15.333-0.002,30.665-0.002,45.997
		C334.038,524.635,334.043,524.635,334.049,524.635z"/>
	<path fill-rule="evenodd" clip-rule="evenodd" fill="#FFFFFF" d="M416.789,704.421c-4.085-20.717-16.725-35.327-28.833-50.284
		c-4.179-5.162-7.937-10.661-11.966-15.946c-6.903-9.054-9.499-19.269-10.306-30.61c-3.38-47.542-1.736-95.113-1.517-142.673
		c0.039-8.271,0.976-16.599,2.23-24.789c2.514-16.404,13.256-26.326,31.094-28.803c7.908-1.098,15.961-1.046,23.926-0.325
		c7.633,0.691,10.606,3.274,12.363,10.764c0.979,4.177,2.225,8.337,2.148,12.752c-0.336,19.3,0.511,38.57,2.176,57.787
		c1.632,18.845,2.982,37.711,5.291,56.505c2.023,16.47,2.673,33.112,4.788,49.567c2.039,15.865,0.988,31.895,3.365,47.706
		c1.511,10.051-0.634,19.151-7.446,26.952C435.204,683.217,426.339,693.44,416.789,704.421z"/>
	<path fill-rule="evenodd" clip-rule="evenodd" fill="#D191B4" d="M2683.891,975.048c24.66,0,49.322-0.144,73.981,0.034
		c35.742,0.257,70.745,4.979,104.414,17.695c26.44,9.987,50.705,23.527,70.402,44.064c16.824,17.541,25.958,38.716,29.583,62.908
		c4.497,30.007-0.844,58.387-12.881,85.384c-9.678,21.709-24.283,40.429-42.92,55.596c-11.596,9.438-23.534,18.377-36.614,25.771
		c-6.78,3.833-6.79,5.254-4.611,13.104c7.66,27.605,24.463,47.578,50.166,60.051c14.069,6.827,27.632,14.714,42.296,20.301
		c3.188,1.215,5.607,3.466,8.038,5.789c22.087,21.114,40.475,44.936,53.036,72.937c9.968,22.219,16.584,45.564,21.121,69.394
		c8.838,46.419,20.244,92.087,38.76,135.667c8.722,20.527,19.071,40.187,35.145,56.396c6.946,7.006,13.158,14.923,17.848,23.866
		c2.521,4.808,2.921,8.842-1.852,12.192c-8.405,5.903-16.628,12.139-25.453,17.342c-5.432,3.203-12.322,2.32-18.477,3.095
		c-18.755,2.362-37.186,6.449-55.808,9.464c-31.738,5.138-62.971,4.207-93.027-7.852c-31.759-12.741-52.125-37.037-64.937-68.049
		c-9.426-22.817-14.166-46.911-18.216-71.15c-3.108-18.602-6.558-37.15-9.384-55.794c-1.936-12.762-2.907-25.666-4.59-38.47
		c-1.896-14.439-3.716-28.907-6.269-43.238c-4.483-25.166-9.941-50.135-19.293-74.037c-6.818-17.43-15.005-34.086-28.431-47.619
		c-23.131-23.317-60.761-11.504-72.538,11.379c-4.203,8.166-5.988,17.207-4.155,26.939c2.814,14.948,4.83,30.069,6.609,45.184
		c2.52,21.416,7.136,42.437,11.102,63.585c3.246,17.305,7.964,34.2,12.896,51.091c5.153,17.646,14.24,32.619,26.293,46.335
		c7.84,8.922,16.053,17.785,21.061,28.876c1.371,3.037,2.78,5.969,2.844,9.462c0.432,24.042-0.883,47.874-9.908,70.523
		c-6.061,15.208-15.804,26.416-32.863,30.424c-18.494,4.346-37.196,5.945-56.04,7.51c-45.901,3.81-91.847,1.704-137.753,1.475
		c-24.143-0.121-48.154-3.986-71.566-10.683c-25.542-7.307-39.634-24.494-43.633-50.223c-1.165-7.492-1.769-15.142-2.553-22.703
		c-1.989-19.196,6.584-33.281,19.254-46.012c14.27-14.339,25.926-30.29,30.772-50.403c1.943-8.063,4.235-16.046,5.975-24.15
		c5.491-25.579,10.56-51.236,14.436-77.128c2.792-18.649,6.401-37.174,9.274-55.813c2.471-16.028,4.417-32.139,6.588-48.213
		c2.524-18.687,5.264-37.348,7.45-56.074c0.883-7.563,1.526-15.158,2.431-22.732c2.158-18.072,4.518-36.157,5.64-54.309
		c0.878-14.212,1.511-28.529-0.937-42.795c-1.621-9.456-1.082-19.137-2.283-28.745c-2.479-19.831-5.566-39.437-12.828-58.101
		c-4.029-10.355-9.99-19.539-20.095-25.307c-3.167-1.808-6.069-4.076-9.118-6.096c-13.605-9.014-18.177-22.337-15.287-38.609
		c3.242-18.255,15.071-29.16,29.752-37.771c16.838-9.877,35.518-14.671,54.646-17.799c22.036-3.603,44.234-4.323,66.521-4.012
		C2646.564,975.255,2665.229,975.048,2683.891,975.048z"/>
	<path fill-rule="evenodd" clip-rule="evenodd" fill="#D191B4" d="M3823.979,333.158c0-5.667-0.01-11.333,0.002-16.999
		c0.05-23.924-1.791-47.731-3.689-71.568c-1.427-17.911-3.479-35.594-8.186-52.954c-5.92-21.831-16.629-40.293-35.575-53.579
		c-20.965-14.701-19.591-36.267-9.221-56.875c6.606-13.127,18.835-20.577,32.124-25.595c19.328-7.299,39.428-11,60.094-12.96
		c15.645-1.483,31.213-1.811,46.801-1.469c20.785,0.456,40.78,4.926,59.381,14.672c11.967,6.27,21.338,14.952,24.834,28.408
		c4.018,15.466,1.701,29.592-10.089,41.428c-6.325,6.35-12.487,12.84-18.391,19.644c-8.432,9.718-12.78,20.986-15.888,32.898
		c-5.699,21.849-8.698,44.106-10.565,66.656c-1.101,13.294-0.439,26.625-1.876,39.781c-3.266,29.924-2.672,59.972-1.17,89.776
		c1.93,38.301-0.126,76.584,1.858,114.786c0.846,16.279,1.669,32.528,1.452,48.797c-0.522,39.354-8.537,76.931-26.34,112.382
		c-13.98,27.837-31.618,52.881-51.912,76.468c-16.841,19.573-35.514,36.88-56.438,51.699
		c-25.525,18.077-53.443,30.452-84.906,34.779c-20.316,2.794-40.631,2.355-60.776,1.268c-39.091-2.111-77.924-7.154-115.275-19.849
		c-23.77-8.079-46.302-18.869-65.764-34.892c-15.767-12.981-28.529-28.723-38.481-46.725
		c-18.42-33.316-28.564-69.196-34.168-106.618c-3.345-22.331-5.21-44.713-6.254-67.288c-0.707-15.267-2.35-30.58-1.293-45.783
		c1.547-22.267,0.547-44.599,2.184-66.768c1.031-13.962,0.183-27.986,1.833-41.779c2.308-19.28,0.276-38.637,2.124-57.775
		c1.381-14.315,2.194-28.606,1.301-42.799c-1.828-29.057-2.668-58.207-9.459-86.841c-6.209-26.179-20.643-46.597-40.771-63.349
		c-7.561-6.292-10.82-13.645-11.594-23.082c-1.619-19.784,7.32-33.848,23.008-44.549c17.113-11.673,36.588-17.248,56.518-21.321
		c26.258-5.366,52.978-5.299,79.484-3.76c21.078,1.223,42.235,3.453,62.789,9.405c12.942,3.748,25.088,8.889,35.705,17.098
		c9.395,7.264,14.166,16.917,14.859,29.161c0.822,14.507-4.295,25.774-14.675,35.469c-6.296,5.882-12.155,12.206-17.618,18.998
		c-6.671,8.293-10.898,17.479-13.573,27.468c-5.581,20.851-9.627,41.99-10.411,63.644c-0.059,1.629,0.507,4.06-0.938,4.627
		c-4.548,1.788-3.014,5.488-3.021,8.497c-0.063,27.998-1.129,56.059,0.367,83.979c1.627,30.367,3.265,60.862,11.413,90.553
		c8.852,32.256,28.614,54.102,59.905,65.516c14.069,5.133,28.527,8.148,43.577,9.655c11.651,1.167,23.246,1.855,34.804,1.288
		c19.225-0.943,38.328-3.354,56.538-10.251c26.365-9.986,43.266-29.25,52.894-55.119c6.156-16.541,8.503-33.95,10.767-51.453
		C3824.729,370.997,3823.288,352.08,3823.979,333.158z"/>
	<path fill-rule="evenodd" clip-rule="evenodd" fill="#D191B4" d="M1058.213,558.075c-1.507,17.089,0.933,33.823,4.649,50.405
		c5.342,23.835,16.368,44.741,32.56,63.032c7.258,8.199,14.063,16.8,21.087,25.206c13.485,16.135,16.136,34.252,10.571,54.22
		c-5.914,21.223-17.145,37.572-37.593,47.64c-18.619,9.167-38.367,11.823-58.472,14.765c-18.206,2.664-36.446,0.911-54.662,3.018
		c-14.671,1.697-29.762,1.056-44.783-0.66c-13.152-1.502-26.458-1.943-39.434-4.808c-14.3-3.158-28.127-7.206-40.233-16.399
		c-10.95-8.316-16.462-19.236-17.631-32.125c-1.484-16.367,1.292-32.447,7.051-47.91c7.903-21.22,22.081-37.761,39.773-51.229
		c15.347-11.682,27.073-26.406,37.863-42.002c16.144-23.337,28.425-48.703,39.638-74.751c22.164-51.49,37.305-105.132,50.25-159.458
		c6.447-27.055,11.958-54.327,15.37-82.003c2.432-19.733,4.569-39.457,6.306-59.271c1.344-15.331,1.923-30.61,1.185-45.805
		c-1.401-28.863-7.617-56.496-25.349-80.479c-5.571-7.534-13.011-13.249-18.422-20.963c-2.918-4.16-3.29-6.976-0.054-10.336
		c4.603-4.781,9.052-9.635,15.161-12.821c17.776-9.271,36.317-16.375,55.65-21.683c27.524-7.558,55.422-13.413,83.538-18.033
		c8.729-1.434,17.669-3.499,26.695-2.603c5.143,0.51,9.794-1.683,14.783-1.962c7.718-0.431,15.24,1.387,22.742,2.335
		c22.552,2.85,44.174,9.188,64.014,20.817c11.99,7.028,21.887,16.357,29.832,27.537c18.403,25.896,33.036,54.029,44.372,83.553
		c7.342,19.122,12.24,39.321,16.703,59.379c7.35,33.037,15.627,65.832,23.724,98.68c11.763,47.721,25.258,94.943,39.836,141.884
		c13.619,43.853,29.414,86.83,47.413,129.077c7.334,17.213,17.09,32.173,30.691,44.871c7.55,7.048,14.445,14.807,22.113,21.715
		c6.984,6.292,11.253,13.803,13.354,22.837c3.952,16.998,5.196,34.08,1.825,51.305c-4.311,22.026-17.301,37.792-36.262,48.875
		c-25.292,14.784-52.916,22.773-81.703,27.154c-26.949,4.102-54.088,6.973-81.297,5.607c-25.75-1.292-51.812-1.7-76.742-9.684
		c-30.85-9.879-50.578-29.167-52.468-65.815c-0.941-18.243-0.214-36.262,3.713-54.143c0.735-3.348,1.908-6.098,4.056-8.846
		c20.574-26.311,31.446-56.576,36.599-89.308c2.434-15.461,4.295-30.884,3.853-46.543c-0.175-6.19,1.122-12.145,0.499-18.604
		c-2.51-26.025-17.384-42.323-39.068-53.996c-19.23-10.352-39.831-15.748-61.424-19.251c-19.421-3.151-37.566,0.498-56.067,4.388
		c-4.167,0.876-7.31,3.374-10.313,5.793c-16.724,13.473-26.547,31.335-31.555,51.931
		C1058.521,527.524,1056.839,542.695,1058.213,558.075z"/>
	<path fill-rule="evenodd" clip-rule="evenodd" fill="#D191B4" d="M2940.889,818.999c-18.795,0-32.472,0.354-46.123-0.075
		c-27.195-0.854-54.259-2.998-80.75-9.875c-11.414-2.963-21.895-7.763-31.28-14.84c-7.738-5.835-11.868-14.352-15.434-22.946
		c-4.6-11.086-7.872-22.672-7.236-34.836c0.303-5.777-2.726-11.06-1.774-16.769c1.512-9.076,5.074-17.306,11.836-23.636
		c8.293-7.765,15.037-16.881,22.776-25.125c8.192-8.727,11.945-19.93,14.906-31.182c8.776-33.351,14.923-67.23,20.539-101.258
		c4.636-28.084,8.8-56.239,13.31-84.34c2.672-16.66,3.212-33.703,6.541-50.205c3.981-19.727-2.957-35.733-13.611-51.081
		c-12.227-17.611-21.047-36.903-28.583-56.857c-0.587-1.553-1.165-3.116-1.875-4.614c-12.818-27.069-25.556-54.178-38.538-81.169
		c-5.392-11.208-13.705-20.055-23.063-28.259c-19.021-16.676-38.815-32.248-60.106-45.924c-4.333-2.783-6.919-6.955-8.367-12.012
		c-6.587-23.004,2.219-45.232,21.142-57.395c18.012-11.577,37.825-17.486,58.455-21.626c24.991-5.015,50.337-5.008,75.509-3.635
		c26.748,1.459,53.627,3.695,79.092,13.435c12.285,4.699,24.385,10.094,30.566,22.544c8.497,17.116,9.315,40.848-10.449,55.574
		c-16.147,12.031-25.693,28.139-28.586,48.34c-2.686,18.757,2.87,36.097,8.565,53.278c4.201,12.678,11.109,24.093,21.314,33.292
		c11.633,10.486,25.357,14.763,40.486,12.896c9.827-1.213,17.873-7.236,23.98-15.074c10.864-13.943,20.793-28.416,25.445-45.904
		c3.603-13.54,10.214-25.956,15.478-38.876c1.751-4.299,3.495-8.636,4.761-13.093c3.448-12.144-0.968-21.458-11.099-28.256
		c-2.806-1.882-5.134-4.205-7.699-6.304c-3.864-3.161-6-7.468-6.504-12.04c-3.245-29.436,2.038-48.52,31.838-63.017
		c20.806-10.122,43.518-13.211,66.489-15.487c17.646-1.749,35.24-2.13,52.792-1.387c22.216,0.941,44.347,3.541,64.71,13.842
		c18.738,9.479,27.81,30.058,21.641,50.451c-1.295,4.284-3.674,7.949-6.729,10.905c-10.781,10.429-22.384,19.802-36.277,25.928
		c-11.253,4.963-22.427,10.113-33.747,14.918c-16.516,7.011-28.788,18.766-38.373,33.618c-9.401,14.569-21.464,27.01-32.24,40.48
		c-24.255,30.317-50.055,59.516-67.262,94.864c-11.917,24.48-17.362,50.238-15.146,77.306c1.241,15.155,3.894,30.205,6.18,45.262
		c2.335,15.374,5.153,30.674,7.487,46.047c4.228,27.843,9.66,55.454,15.422,83.01c4.214,20.153,8.981,40.115,16.394,59.412
		c4.014,10.447,10.146,19.257,17.215,27.773c8.24,9.929,17.32,19.247,23.578,30.749c2.639,4.851,3.546,9.814,3.675,15.286
		c0.464,19.691-0.407,39.199-6.18,58.205c-5.109,16.825-13.108,31.32-30.749,38.037c-7.807,2.973-16.018,4.341-24.186,5.517
		c-16.074,2.314-32.36,2.907-48.47,4.583C2980.249,819.774,2958.003,817.918,2940.889,818.999z"/>
	<path fill-rule="evenodd" clip-rule="evenodd" fill="#D191B4" d="M596.4,1757.072c-38.798,0.264-72.798-4.712-105.824-15.703
		c-38.309-12.748-71.4-33.905-98.645-63.646c-26.201-28.602-41.841-62.626-50.152-100.438c-5.477-24.921-6.656-50.019-5.708-75.281
		c0.918-24.451,14.017-38.76,39.452-39.188c11.876-0.2,22.29,2.704,31.708,9.755c13.526,10.128,28.488,16.896,45.263,19.645
		c23.668,3.876,46.79,3.597,69.081-6.89c20.379-9.588,30.951-26.407,36.23-47.364c2.961-11.756,2.586-23.777,2.076-35.727
		c-0.351-8.196-4.391-15.37-8.548-22.146c-6.784-11.055-14.541-21.47-23.863-30.575c-23.815-23.262-48.005-46.148-71.44-69.785
		c-14.952-15.081-28.955-31.079-40.356-49.216c-17.353-27.602-26.152-57.442-23.469-90.046c1.911-23.219,6.497-46.035,16.767-67.204
		c15.56-32.069,39.951-56.013,69.926-74.696c25.833-16.102,54.343-24.654,84.081-29.218c27.449-4.212,54.93-2.97,82.178,2.374
		c28.269,5.545,56.417,11.766,84.799,16.639c11.344,1.948,22.978,3.396,34.7,2.757c11.453-0.625,19.833,4.538,24.87,14.904
		c6.881,14.165,10.65,29.086,12.8,44.741c2.95,21.477,4.415,42.963,3.512,64.554c-0.526,12.564-2.113,25.11-8.218,36.572
		c-6.681,12.543-23.514,19.894-37.428,16.151c-13.813-3.715-24.238-12.48-32.895-23.236c-9.169-11.392-16.521-24.059-23.881-36.722
		c-10.713-18.431-22.927-35.804-40.268-48.85c-15.288-11.501-32.726-14.411-51.11-11.698c-8.131,1.199-16.312,2.593-24.271,5.182
		c-36.484,11.87-50.212,49.679-41.251,80.004c3.906,13.22,13.024,23.98,23.542,32.9c20.899,17.723,44.448,31.386,68.79,43.803
		c37.063,18.906,73.057,39.649,107.133,63.593c33.606,23.612,59.424,54.009,77.323,90.881c10.78,22.209,17.357,45.817,20.861,70.335
		c2.21,15.469,3.813,31.094,3.463,46.545c-1.019,45.065-7.793,89.217-26.953,130.618c-17.339,37.467-42.559,68.798-74.542,94.838
		c-30.878,25.14-65.991,40.462-105.2,47.09C624.807,1756.05,608.705,1757.536,596.4,1757.072z"/>
	<path fill-rule="evenodd" clip-rule="evenodd" fill="#D191B4" d="M3424.046,1757.132c-40.031,0.137-74.46-4.492-107.713-15.904
		c-28.185-9.673-53.777-23.888-76.834-43.225c-21.537-18.062-38.705-39.22-51.713-63.825
		c-10.786-20.402-17.423-42.358-21.657-65.009c-4.234-22.651-5.235-45.584-3.953-68.503c0.833-14.875,5.857-28.526,21.4-34.206
		c16.352-5.975,32.615-5.748,47.617,4.668c10.953,7.604,21.982,15.064,35.227,18.251c23.484,5.648,46.858,8.03,70.546,0.368
		c23.044-7.454,37.872-22.473,44.976-45.435c9.246-29.887,4.848-56.655-16.147-80.889c-16.188-18.687-33.885-35.817-51.725-52.748
		c-10.61-10.07-21.566-19.842-31.562-30.496c-16.809-17.913-33.674-35.907-45.59-57.706c-13.691-25.046-21.08-51.745-18.703-80.416
		c1.982-23.899,6.755-47.315,17.027-69.222c5.663-12.078,12.757-23.45,21.584-33.408c22.389-25.255,48.692-45.022,80.79-56.725
		c20.089-7.324,40.523-12.106,61.85-14.1c8.95-0.836,17.842-1.39,26.8-1.598c15.359-0.355,30.43,2.197,45.4,4.974
		c28.328,5.254,56.457,11.619,84.85,16.466c11.348,1.937,22.982,3.349,34.712,2.69c11.077-0.622,18.786,4.796,24.197,14.442
		c7.136,12.725,10.289,26.565,12.542,40.707c3.775,23.697,4.764,47.59,3.915,71.525c-0.412,11.64-2.57,23.063-8.025,33.613
		c-6.813,13.177-23.704,20.492-38.099,16.433c-13.025-3.673-22.826-11.859-31.342-22.016c-9.664-11.524-17.266-24.381-24.613-37.401
		c-6.886-12.202-14.768-23.788-24.006-34.212c-10.43-11.77-22.589-21.425-38.347-25.795c-7.644-2.12-15.286-1.816-22.792-1.22
		c-16.229,1.29-32.027,3.953-46.33,13.271c-10.289,6.704-17.543,15.214-22.126,26.166c-6.74,16.107-9.185,32.555-2.221,49.371
		c4.144,10.008,10.409,18.74,18.272,25.847c16.062,14.514,33.785,26.794,53.032,36.906c36.799,19.333,73.626,38.691,108.445,61.468
		c20.866,13.648,40.966,28.502,57.704,47.278c28.696,32.19,48.215,69.139,56.403,111.627c4.146,21.507,6.983,43.295,6.023,65.258
		c-2.121,48.491-9.829,95.756-33.213,139.196c-10.589,19.672-23.266,37.787-38.304,54.482
		c-15.262,16.943-32.343,31.364-51.457,43.581c-25.543,16.326-53.337,26.542-83.221,31.553
		C3451.559,1755.919,3435.455,1757.632,3424.046,1757.132z"/>
	<path fill-rule="evenodd" clip-rule="evenodd" fill="#D191B4" d="M1150.226,1752.973c-25.903,0-44.951,0.897-63.879-0.229
		c-23.444-1.395-46.75-4.307-69.491-11.079c-27.329-8.14-41.395-26.979-46.805-53.937c-2.45-12.21-2.205-24.469-2.062-36.754
		c0.097-8.327,5.714-13.926,10.709-19.674c6.754-7.772,13.767-15.32,20.552-23.067c11.584-13.228,16.145-29.79,20.377-46.119
		c7.812-30.143,13.716-60.727,18.535-91.517c4.297-27.46,9.632-54.771,13.38-82.3c3.035-22.294,6.608-44.524,8.687-66.967
		c1.982-21.408,5.82-42.661,7.319-64.089c0.833-11.898,1.874-23.842,2.815-35.714c1.633-20.611,0.149-41.313,2.132-61.753
		c1.777-18.329,0.62-36.561,1.574-54.803c0.26-4.975-1.193-8.255-6.046-10.04c-3.11-1.144-5.951-2.998-9.012-4.303
		c-20.36-8.674-31.089-3.078-41.835,14.247c-7.741,12.48-11.847,26.71-17.417,40.221c-7.775,18.859-20.235,32.658-40.395,38.304
		c-9.954,2.787-20.255,4.881-30.482,3.352c-22.69-3.393-26.885-8.832-30.739-30.066c-3.286-18.1-2.999-36.521-1.863-54.725
		c1.2-19.241,6.145-37.911,13.21-55.959c5.476-13.988,12.298-27.334,19.401-40.503c6.498-12.047,14.901-22.75,26.39-30.645
		c8.459-5.813,17.854-7.131,27.657-5.126c15.581,3.185,31.062,6.854,46.634,10.086c9.082,1.885,18.205,3.306,27.593,3.262
		c43.654-0.201,87.34,0.837,130.953-0.526c24.595-0.77,49.195-0.915,73.773-1.811c8.479-0.309,16.998-1.772,24.927-5.944
		c15.374-8.087,28.706-5.923,41.716,5.704c8.524,7.617,15.685,16.367,21.245,26.272c13.096,23.329,23.47,47.815,27.773,74.366
		c3.686,22.746,4.233,45.608-1.593,68.203c-2.775,10.765-6.968,20.77-15.612,28.402c-14.279,12.61-36.224,12.223-49.723-1.04
		c-9.381-9.217-16.298-19.938-21.171-32.227c-5.667-14.291-13.469-27.622-23.087-39.526c-8.969-11.102-20.06-19.416-35.846-18.123
		c-7.98,0.654-14.094,5.573-21.223,8.115c-1.488,0.53-2.524,2.35-2.058,4.169c1.921,7.487-0.043,15.207,1.87,22.81
		c2.179,8.661,1.469,17.773,2.532,26.688c2.232,18.723,4.249,37.508,5.912,56.283c1.375,15.512,3.542,30.937,4.678,46.479
		c1.011,13.83,4.005,27.509,5.199,41.334c1.142,13.218,2.903,26.337,4.573,39.479c1.668,13.128,3.334,26.258,5.23,39.354
		c2.038,14.079,4.572,28.09,6.475,42.187c2.704,20.03,6.796,39.809,10.227,59.707c4.505,26.128,9.632,52.131,16.206,77.814
		c2.384,9.316,5.802,18.373,8.841,27.518c2.148,6.466,6.744,11.464,10.803,16.663c6.94,8.889,14.349,17.418,21.703,25.977
		c6.964,8.104,10.723,17.002,10.734,28.074c0.019,17.733-1.89,35.157-6.417,52.188c-3.987,14.998-10.228,28.934-24.671,37.225
		c-8.236,4.729-17.468,6.489-26.573,7.812c-15.063,2.188-30.29,3.315-45.445,4.772
		C1193.806,1753.908,1168.559,1751.982,1150.226,1752.973z"/>
	<path fill-rule="evenodd" clip-rule="evenodd" fill="#D191B4" d="M2099.973,616.559c0,15.323,0.468,26.012-0.098,36.646
		c-1.143,21.496-3.249,42.899-6.89,64.161c-2.866,16.74-6.89,33.126-13.131,48.886c-3.91,9.874-8.372,19.512-15.265,27.89
		c-8.51,10.344-19.275,15.881-32.504,16.911c-0.994,0.077-2.001,0.08-2.997,0.029c-24.97-1.281-49.865,1.342-74.731,2.477
		c-19.747,0.901-39.67,2.232-59.35,5.151c-2.616,0.388-5.32,0.232-7.983,0.235c-18.662,0.017-37.375,0.896-55.973-0.198
		c-28.258-1.662-56.579-0.505-84.75-2.237c-17.294-1.063-34.583-0.322-51.782-1.68c-20.187-1.593-39.97-4.865-58.096-15.347
		c-16.492-9.537-25.578-23.935-30.216-41.523c-6.187-23.46-1.872-46.042,7.337-67.959c10.812-25.731,21.694-51.432,32.517-77.158
		c10.62-25.243,17.377-51.418,20.09-78.739c1.994-20.074,5.682-39.991,7.341-60.084c0.845-10.229,1.681-20.547,2.863-30.691
		c1.575-13.525,0.217-27.244,3.259-40.603c0.22-0.965,0.248-1.983,0.276-2.98c1.185-40.574,3.714-81.173,1.776-121.736
		c-1.325-27.742-3.239-55.644-10.132-82.725c-3.852-15.131-9.104-29.913-19.422-42.278c-2.172-2.604-4.247-5.004-7.293-6.597
		c-2.642-1.381-5.029-3.241-7.63-4.709c-8.599-4.854-17.162-10.425-18.601-20.84c-1.776-12.85-2.29-26.132,5.453-37.704
		c6.202-9.27,14.619-16.275,24.522-21.471c15.436-8.098,31.909-13.171,48.917-16.542c26.952-5.341,54.327-5.375,81.473-3.691
		c25.707,1.594,51.616,3.982,76.048,13.561c11.922,4.674,23.081,10.596,29.786,22.133c7.33,12.611,6.592,26.069,3.039,39.614
		c-0.707,2.695-2.926,4.401-4.798,6.279c-4.706,4.72-9.198,9.694-14.231,14.037c-10.443,9.01-16.674,20.471-20.935,33.336
		c-7.434,22.447-11.66,45.431-14.108,68.976c-4.45,42.795-4.409,85.689-3.258,128.529c0.517,19.244,0.19,38.597,1.847,57.754
		c1.45,16.767,4.993,33.391,8.244,49.954c4.094,20.863,9.657,41.368,17.147,61.306c5.196,13.83,12.044,26.778,22.567,37.258
		c11.146,11.102,24.067,15.641,40.601,13.473c20.936-2.745,38.371-11.419,55.282-23.228c16.045-11.204,31.815-22.99,49.651-31.486
		c6.352-3.024,13.03-5,19.549-7.485c9.682-3.69,18.314-0.856,26.206,4.635c5.157,3.588,9.618,8.161,14.59,12.037
		c8.3,6.47,10.456,15.464,11.992,25.305C2100.967,585.343,2099.535,603.294,2099.973,616.559z"/>
	<path fill-rule="evenodd" clip-rule="evenodd" fill="#D191B4" d="M2665.702,617.966c2.107,19.494-0.854,39.717-2.148,59.896
		c-1.694,26.416-5.972,52.708-14.263,78.033c-5.4,16.492-11.865,32.499-25.474,44.477c-7.312,6.436-15.608,10.781-25.165,10.514
		c-27.312-0.766-54.472,3.18-81.758,2.129c-6.406-0.247-12.545,1.432-18.744,2.245c-36.761,4.82-73.714,4.758-110.538,3.285
		c-26.276-1.051-52.597-0.147-78.76-1.994c-17.301-1.221-34.601-0.315-51.786-1.779c-20.549-1.75-40.859-5.253-58.443-17.419
		c-16.531-11.438-24.828-27.446-28.941-46.983c-4.691-22.286,2.182-42.201,9.891-61.937c9.425-24.132,20.551-47.594,30.362-71.583
		c9.686-23.681,17.922-47.769,20.317-73.606c1.71-18.429,5.546-36.661,7.226-55.091c0.842-9.229,1.426-18.589,2.812-27.685
		c1.908-12.516,0.257-25.261,3.318-37.605c0.237-0.958,0.323-1.988,0.283-2.977c-0.72-17.98,2.673-35.758,2.292-53.771
		c-0.471-22.254,3.392-44.493,1.623-66.756c-1.888-23.772-1.825-47.637-5.255-71.369c-2.67-18.478-5.903-36.59-12.544-54.053
		c-4.891-12.86-12.879-23.135-24.526-30.557c-4.484-2.857-8.736-6.081-13.252-8.883c-3.314-2.057-5.431-4.938-6.609-8.469
		c-6.438-19.288-2.67-41.742,15.109-55.471c18.944-14.628,40.898-21.347,64-25.657c25.375-4.733,51.02-5.004,76.51-3.535
		c28.729,1.656,57.675,3.99,84.576,15.889c23.76,10.509,34.773,30.718,28.543,55.661c-1.174,4.695-3.545,8.53-7.057,11.809
		c-3.164,2.956-5.879,6.451-9.27,9.096c-16.696,13.028-24.626,31.302-29.43,50.9c-5.836,23.812-9.179,48.02-10.955,72.613
		c-3.031,41.945-0.826,83.859-1.515,125.777c-0.431,26.253,2.459,52.2,7.274,78.086c4.564,24.543,10.002,48.768,18.547,72.192
		c5.594,15.335,12.743,29.848,24.759,41.595c11.321,11.068,24.046,14.665,39.825,12.601c18.704-2.446,35.16-9.152,50.373-19.885
		c11.671-8.234,23.632-16.058,35.394-24.166c12.738-8.781,26.848-14.308,41.601-18.697c7.476-2.224,13.957-0.808,19.764,3.307
		c7.564,5.362,14.7,11.367,21.744,17.417c6.917,5.941,7.383,14.75,8.378,22.814C2665.783,584.53,2666.877,600.799,2665.702,617.966z
		"/>
	<path fill-rule="evenodd" clip-rule="evenodd" fill="#EEEA87" d="M2350.363,1303.915c0.408,22.054-9.357,38.519-26.511,51.221
		c-53.78,39.826-107.472,79.773-161.378,119.428c-4.883,3.592-6.794,7.223-6.671,13.195c0.575,27.968,2.046,55.907,2.87,83.865
		c0.46,15.62,0.25,31.328,1.633,46.888c2.184,24.577,1.999,49.231,2.609,73.818c0.891,35.87-25.636,60.048-56.164,62.6
		c-15.143,1.266-28.934-2.719-41.397-11.62c-50.942-36.38-101.957-72.659-152.969-108.941c-6.218-4.423-12.079-10.668-19.016-12.38
		c-6.676-1.648-13.701,3.979-20.542,6.458c-56.631,20.52-113.232,41.125-169.803,61.811c-14.576,5.33-29.058,8.94-44.817,4.936
		c-33.321-8.47-53.879-42.93-43.979-75.822c10.547-35.044,21.875-69.852,32.829-104.773c9.758-31.11,19.338-62.277,29.339-93.309
		c1.552-4.815,0.649-7.869-2.327-11.657c-35.58-45.295-70.983-90.728-106.428-136.127c-7.171-9.186-14.792-18.063-21.388-27.646
		c-13.521-19.643-15.841-40.927-5.251-62.368c10.727-21.718,28.878-33.777,53.358-34.401c25.648-0.654,51.344,0.292,76.979-0.605
		c42.626-1.492,85.256-1.188,127.886-1.396c5.976-0.028,9.592-1.902,12.951-6.952c23.424-35.217,47.185-70.21,70.84-105.273
		c14.341-21.258,28.684-42.514,43.029-63.769c21.002-31.118,61.997-33.449,86.556-15.714c11.768,8.499,19.126,20.066,23.684,33.757
		c20.496,61.574,41.146,123.098,61.739,184.641c0.739,2.209,1.601,4.391,2.149,6.647c1.141,4.687,3.983,7.145,8.684,8.466
		c35.537,9.994,71.024,20.167,106.515,30.326c30.055,8.604,60.109,17.209,90.134,25.915c22.284,6.461,36.381,21.145,43.189,43.204
		C2350.311,1293.576,2350.004,1298.869,2350.363,1303.915z"/>
	<path fill-rule="evenodd" clip-rule="evenodd" fill="#957DA9" d="M2798.123,1147.136c-1.494,30.102-7.94,56.215-23.905,79.323
		c-11.178,16.18-26.717,26.033-46.157,28.277c-21.473,2.479-34.928-8.282-37.915-32.514c-2.31-18.729-3.082-37.624-4.466-56.448
		c-1.53-20.798-2.973-41.61-4.462-62.414c-0.735-10.281,2.209-19.771,9.083-27.522c12.734-14.357,27.878-20.55,47.886-17.604
		c20.997,3.092,35.539,13.891,46.403,30.794c6.539,10.175,9.694,22.057,10.929,33.838
		C2796.444,1131.709,2798.922,1140.528,2798.123,1147.136z"/>
	<path fill-rule="evenodd" clip-rule="evenodd" fill="#957DA9" d="M1089.906,323.592c0.175-11.815,3.144-22.43,6.247-32.861
		c7.018-23.592,14.976-46.859,29.53-67.197c3.719-5.196,7.954-9.676,13.419-13.125c15.734-9.928,32.875-4.056,45.899,6.616
		c10.778,8.832,18.265,20.234,23.426,33.058c7.815,19.419,14.322,39.284,20.135,59.41c5.095,17.637-3.083,34.354-24.775,38.978
		c-6.738,1.436-13.588,2.462-21.254-0.371c-8.472-3.13-18.415-1.761-27.65-0.322c-13.773,2.145-27.636,2.806-41.383,0.97
		C1098.629,346.763,1088.005,335.805,1089.906,323.592z"/>
	<path fill-rule="evenodd" clip-rule="evenodd" fill="#471C14" d="M1911.387,1333.489c-1.753-0.006-3.104-0.612-4.2-2.119
		c-8.316-11.428-6.891-28.963,3.271-39.447c10.341-10.669,27.75-12.405,40.205-4.008c11.903,8.024,16.873,24.182,11.483,37.024
		c-0.718,1.711-1.857,2.642-3.48,3.207c-3.132-0.421-5.057-2.908-7.542-4.431c-11.363-6.958-23.667-5.454-33.177,4.043
		C1915.893,1329.811,1914.482,1332.623,1911.387,1333.489z"/>
	<path fill-rule="evenodd" clip-rule="evenodd" fill="#F6C8D7" d="M1790.25,1259.337c1.048,15.077-10.673,22.988-22.017,23.074
		c-12.107,0.091-22.146-8.053-22.326-22.996c-0.152-12.728,9.125-22.262,21.632-22.45
		C1780.731,1236.765,1790.142,1246.036,1790.25,1259.337z"/>
	<path fill-rule="evenodd" clip-rule="evenodd" fill="#F6C8D7" d="M2109.277,1292.821c11.192-1.447,22.902,9.388,22.701,22.515
		c-0.188,12.322-11.067,22.427-23.385,22.1c-12.003-0.318-21.707-8.806-22.084-22.285
		C2086.203,1304.176,2094.366,1291.779,2109.277,1292.821z"/>
	<path fill-rule="evenodd" clip-rule="evenodd" fill="#F5C7D6" d="M1911.387,1333.489c9.883-20.576,32.807-23.178,47.272-5.354
		c0.987,5.03-3.408,6.806-6.058,9.265c-9.696,8.995-24.948,10.046-35.836,2.89
		C1914.228,1338.622,1912.054,1336.646,1911.387,1333.489z"/>
	<path fill-rule="evenodd" clip-rule="evenodd" fill="#4A1F16" d="M2039.769,1255.029c21.864-0.048,37.402,15.968,36.516,35.17
		c-0.076,1.65-0.113,3.386-0.649,4.912c-0.717,2.037-2.445,3.087-4.672,2.785c-1.785-0.243-3.222-1.341-3.459-3.104
		c-0.307-2.277,0.025-4.633-0.186-6.931c-1.117-12.181-9.886-21.734-21.125-23.133c-12.668-1.576-23.038,4.581-27.586,16.45
		c-0.589,1.537-0.714,3.255-1.321,4.783c-0.99,2.492-2.991,3.637-5.585,2.873c-2.571-0.756-3.849-2.856-3.181-5.4
		c0.922-3.511,1.891-7.142,3.633-10.281C2018.648,1261.447,2028.875,1255.594,2039.769,1255.029z"/>
	<path fill-rule="evenodd" clip-rule="evenodd" fill="#4A1F16" d="M1839.017,1217.521c18.259-0.325,34.126,14.585,34.86,32.79
		c0.066,1.656,0.056,3.336-0.141,4.979c-0.344,2.879-1.682,5.355-4.831,5.372c-3.16,0.017-4.587-2.261-4.621-5.336
		c-0.019-1.66,0.15-3.328,0.045-4.98c-0.718-11.272-9.201-21.055-19.988-23.116c-11.368-2.173-22.988,4.021-27.661,14.837
		c-1.05,2.43-1.601,5.085-2.746,7.46c-0.995,2.064-3.064,2.374-5.127,1.733c-1.731-0.537-2.862-1.864-2.781-3.687
		c0.087-1.964,0.363-3.974,0.925-5.854C1811.082,1227.881,1824.53,1217.778,1839.017,1217.521z"/>
	<path fill-rule="evenodd" clip-rule="evenodd" fill="#FFFFFF" d="M2767.976,1148.145c0.546,20.122-4.445,38.819-14.567,56.168
		c-4.794,8.218-10.998,15.023-19.934,18.86c-10.151,4.358-14.162,2.155-15.173-8.689c-0.801-8.59-1.07-17.217-1.822-25.828
		c-2.052-23.481-3.138-47.045-4.692-70.571c-0.283-4.297-1.06-8.559-1.451-12.851c-0.91-9.967,5.381-17.477,15.294-18.385
		c16.914-1.549,29.999,6.347,36.119,22.188C2766.6,1121.59,2768.285,1134.729,2767.976,1148.145z"/>
	<path fill-rule="evenodd" clip-rule="evenodd" fill="#FFFFFF" d="M1190.933,319.395c-17.027-4.563-35.743-1.232-54.523,1.176
		c-16.891,2.166-18.246,0.587-13.982-15.79c5.036-19.347,11.882-38.037,21.504-55.619c1.745-3.188,3.684-6.344,5.998-9.129
		c5.12-6.161,8.944-6.678,15.33-2c6.904,5.059,11.168,12.329,14.598,19.889c7.834,17.267,13.471,35.365,19.07,53.447
		C1201.089,318.352,1199.617,320.019,1190.933,319.395z"/>
</g>
</svg>
